<?xml version="1.0" encoding="UTF-8"?>
<svg
	xmlns="http://www.w3.org/2000/svg"
	xmlns:xlink="http://www.w3.org/1999/xlink"
	width="0"
	height="0"
>
	<defs>
		<symbol viewBox="0 0 40 40" fill="none" id="track">
			<rect
				x="1.5"
				y="1.5"
				width="37"
				height="37"
				rx="18.5"
				fill="white"
			></rect>
			<rect
				x="1.5"
				y="1.5"
				width="37"
				height="37"
				rx="18.5"
				stroke="black"
				stroke-width="3"
			></rect>
			<g clip-path="url(#clip0_107_1594)">
				<path
					d="M14.7859 30.5581C14.585 31.396 15.0742 32.2441 15.8789 32.4531C16.0015 32.4854 16.124 32.4995 16.2451 32.4995C16.9179 32.4995 17.5302 32.0259 17.7015 31.3164L18.8865 26.3862L16.4085 23.8091L14.7859 30.5581ZM15.485 20.9819L17.4175 13.2129C17.5203 12.8018 17.2701 12.3853 16.8578 12.2822C14.7977 11.7686 12.7098 13.0181 12.1947 15.0737L11.0083 19.8652C10.9055 20.2764 11.1557 20.6929 11.568 20.7959L14.5521 21.5405C14.9648 21.6431 15.3822 21.3931 15.485 20.9819ZM28.263 15.3125H27.5118C27.0967 15.3125 26.7606 15.6621 26.7606 16.0938V16.875H25.129L22.9327 14.5908C22.412 14.0483 21.7186 13.75 20.9815 13.75C19.7129 13.75 18.6119 14.6436 18.3039 15.9238L17.04 21.1836C16.9771 21.4454 16.9805 21.7196 17.0498 21.9797C17.1191 22.2397 17.2519 22.4767 17.4353 22.6675L21.5021 26.897V30.9375C21.5021 31.8003 22.1749 32.5 23.0045 32.5C23.8342 32.5 24.5069 31.8003 24.5069 30.9375V26.897C24.5069 26.0625 24.1943 25.2778 23.6266 24.6875L21.4284 22.4014C21.4355 22.377 21.4514 22.3579 21.4575 22.3325L22.3914 18.4473L23.4445 19.5425C23.7262 19.8355 24.1083 20.0005 24.5065 20.0005H26.7601V31.7192C26.7601 32.1509 27.0962 32.5005 27.5113 32.5005H28.2625C28.6775 32.5005 29.0137 32.1509 29.0137 31.7192V16.0938C29.0142 15.6621 28.678 15.3125 28.263 15.3125ZM22.2533 12.1875C23.498 12.1875 24.5069 11.1382 24.5069 9.84375C24.5069 8.54932 23.498 7.5 22.2533 7.5C21.0087 7.5 19.9997 8.54932 19.9997 9.84375C19.9997 11.1382 21.0087 12.1875 22.2533 12.1875Z"
					fill="#000033"
				></path>
			</g>
			<defs>
				<clipPath id="clip0_107_1594">
					<rect
						width="18.0288"
						height="25"
						fill="white"
						transform="translate(10.9856 7.5)"
					></rect>
				</clipPath>
			</defs>
		</symbol>
		<symbol viewBox="0 0 72 72" id="openmoji-wrench">
			<path
				fill="#D0CFCE"
				d="M41 64.905v-28.41l1.367-.523c4.079-1.561 7.001-5.246 7.633-9.623.601-4.269-.45-7.56-3-10.146 0 0-1.393-1.413-3.597-2.47-.653-.314-1.403.196-1.403.928v7.63l-2 3.044h-7l-2-3.044v-7.63c0-.732-.75-1.242-1.403-.928C27.393 14.79 26 16.203 26 16.203c-2.55 2.587-3.601 5.877-3 10.146l.015.107c.65 4.392 3.72 8.024 7.815 9.592l1.17.447v28.41"
			></path>
			<path
				fill="none"
				stroke="#000"
				stroke-linecap="round"
				stroke-linejoin="round"
				stroke-miterlimit="10"
				stroke-width="2"
				d="M41 63.906v-28l1.367-.515A11.995 11.995 0 0 0 50 25.906v0c.601-4.207-.45-7.45-3-10 0 0-1.393-1.392-3.597-2.435-.653-.308-1.403.194-1.403.916v7.52l-2 3h-7l-2-3v-7.52c0-.722-.75-1.224-1.403-.916C27.393 14.514 26 15.906 26 15.906c-2.55 2.55-3.601 5.793-3 10l.015.106c.65 4.328 3.72 7.908 7.815 9.453l1.17.441v28"
			></path>
		</symbol>
		<symbol viewBox="0 0 72 72" id="openmoji-world-map">
			<path fill="#92D3F5" d="M5 17h62v38H5z"></path>
			<path
				fill="#B1CC33"
				d="M28.5 30.5c-.042.583-1.667 2.586-2.083 2.875-.869.603-1.207.327-1.964.922-.48.377-1.078.78-1.812.922-.407.078-.227-.306-1.141.281-.51.327-.057.679 0 1 .077.432.134.172 1 1 .452.433.492.818 1 1 .317.114.548.051 1 0 .948-.108.526.827 1 1 1.09.399.997 1.832 2 2 .405.068.55-.144 1 0 .411.132.883.5 1 1 .154.657-.372 1.27-1 2-.508.591-.602.5-1 1-.531.668-.389.864-1 2-.618 1.15-.958 1.311-1 2-.017.288 0 .97 0 1 .018.695.056.787 0 1-.13.497-1.14.932-1.52.875-.75-.113-.737-2.703-.772-3.104-.07-.81.262-1.263.292-1.771.104-1.757.397-2.302 0-3-.253-.446-.387-.25-1-1-.346-.424-.87-1.082-1-2-.082-.579.089-.582 0-1-.165-.775-.808-1.026-2-2-.735-.601-1.387-1.134-2-2-.319-.45-.77-1.087-1-2-.304-1.202.149-1.399 0-3a7.064 7.064 0 0 0-1-3c-.348-.562-.594-.946-1-1-.774-.103-1.19 1.115-2 1-.484-.069-.858-.579-1-1-.038-.113-.176-.544 0-1 .098-.253.399-.502 1-1 .614-.508.922-.767 1-1 .146-.439-.117-.595 0-1 .2-.693 1.265-1.244 2-1 .422.14.331.408 1 1 .325.287 1.026.827 2 1 .492.088.738.131 1 0 .647-.324.338-1.18 1-2 .61-.753 1.6-.929 2-1 .99-.175 1.125.2 2 0 .94-.216.913-.68 2-1 .476-.14 1.315-.388 2 0 .617.349.535.888 1 1 .649.157.967-.855 2-1 .789-.11 1.727.321 2 1 .136.337.072.647 0 1-.218 1.065-.795 1.13-1 2-.222.946.254 1.175 0 2-.167.542-.5.375-1.031.813-.243.2-.302.52-.969 1.187-.333.333-.68.654-1 1-.73.788-.847.847-1 1M34.5 35.5c-.233-.296-1.228-1.826-1-2 .282-.215.78.208 1 0 .182-.172-.117-.504 0-1 .112-.478.556-.877 1-1 .528-.146.897.145 1 0 .198-.279-1.238-1.262-1-2 .147-.458.803-.402 1-1 .132-.402-.127-.54 0-1 .129-.465.537-.845 1-1 .132-.044.572-.192 1 0 .542.243.458.757 1 1 .305.137.695.137 1 0 .541-.242.483-.767 1-1 .343-.154.513.01 1 0 1.117-.024 1.94-.931 2-1 .503-.571.248-.8 1-2 .401-.641.665-.88 1-1 .095-.034.556-.199 1 0 .54.241.485.764 1 1 .267.122.44.055 1 0 .071-.007.714-.005 2 0 1.905.007 1.82.044 2 0 1.01-.247.991-.753 2-1 .698-.17.683.077 2 0 1.198-.07 1.775-.308 2 0 .086.117.021.178 0 1-.009.335.27.65.276 1.042.011.891.043.835-.005.958-.208.53-.362.659-.604 1.188-.09.197-.12.274-.084 1.02.053 1.097.356.848.417 1.792.048.738.125.886 0 1-.336.305-2.173-.264-2.583-1.125-.431-.905-.122-1.673-.417-1.875-.404-.278-2.233 1.126-2.5 2.016-.053.176-.284.452.578 1.234.872.79 1.249 1.084 1.328 1.156.485.438 1.008 1.028.594 1.594-.557.76-1.615.316-2 1-.345.613.386 1.185 0 2-.111.235-.407.49-1 1-.66.568-.904.65-1 1-.128.467.185.783 0 1-.237.279-.967.013-1 0-1.29-.484-1.342-1.97-2-2-.789-.036-1.221 2.078-2 2-.175-.018-.45-.345-1-1-.53-.63-.642-.862-1-1-.458-.177-.891-.037-1 0-.18.061-.503.222-1 1-.707 1.108-.438 1.395-1 2-.476.513-.858.509-1 1-.03.104-.02.403 0 1 .02.614.03.922 0 1-.208.531-.762.47-1 1-.163.363.026.551 0 1-.06 1.034-1.19 2.148-2 2-.322-.059-.548-.373-1-1-.4-.555-.828-1.15-1-2-.184-.915.154-1.01 0-2-.078-.502-.253-1.632-1-2-.716-.353-1.245.348-2 0-.702-.324-1.023-1.29-1-2 .025-.76.444-1.293 1-2 .436-.554.654-.831 1-1M54.5 44.5c-1.18.58-1.744.453-2 1-.199.424-.04.886 0 1 .243.704.925.972 1 1 .864.324 1.339-.354 2 0 .504.27.426.771 1 1 .316.126.597.076 1 0 .693-.131 1.583-.3 2-1 .3-.501.198-1.01 0-2-.153-.768-.355-1.778-1-2-.126-.043-.138-.012-1 0-.731.01-.806-.012-1 0-.765.046-.904.462-2 1z"
			></path>
			<g
				fill="none"
				stroke="#000"
				stroke-linecap="round"
				stroke-linejoin="round"
				stroke-miterlimit="10"
				stroke-width="2"
			>
				<path d="M5 17h62v38H5z"></path>
				<path
					d="M28.5 30.5c-.042.583-1.667 2.586-2.083 2.875-.869.603-1.207.327-1.964.922-.48.377-1.078.78-1.812.922-.407.078-.227-.306-1.141.281-.51.327-.057.679 0 1 .077.432.134.172 1 1 .452.433.492.818 1 1 .317.114.548.051 1 0 .948-.108.526.827 1 1 1.09.399.997 1.832 2 2 .405.068.55-.144 1 0 .411.132.883.5 1 1 .154.657-.372 1.27-1 2-.508.591-.602.5-1 1-.531.668-.389.864-1 2-.618 1.15-.958 1.311-1 2-.017.288 0 .97 0 1 .018.695.056.787 0 1-.13.497-1.14.932-1.52.875-.75-.113-.737-2.703-.772-3.104-.07-.81.262-1.263.292-1.771.104-1.757.397-2.302 0-3-.253-.446-.387-.25-1-1-.346-.424-.87-1.082-1-2-.082-.579.089-.582 0-1-.165-.775-.808-1.026-2-2-.735-.601-1.387-1.134-2-2-.319-.45-.77-1.087-1-2-.304-1.202.149-1.399 0-3a7.064 7.064 0 0 0-1-3c-.348-.562-.594-.946-1-1-.774-.103-1.19 1.115-2 1-.484-.069-.858-.579-1-1-.038-.113-.176-.544 0-1 .098-.253.399-.502 1-1 .614-.508.922-.767 1-1 .146-.439-.117-.595 0-1 .2-.693 1.265-1.244 2-1 .422.14.331.408 1 1 .325.287 1.026.827 2 1 .492.088.738.131 1 0 .647-.324.338-1.18 1-2 .61-.753 1.6-.929 2-1 .99-.175 1.125.2 2 0 .94-.216.913-.68 2-1 .476-.14 1.315-.388 2 0 .617.349.535.888 1 1 .649.157.967-.855 2-1 .789-.11 1.727.321 2 1 .136.337.072.647 0 1-.218 1.065-.795 1.13-1 2-.222.946.254 1.175 0 2-.167.542-.5.375-1.031.813-.243.2-.302.52-.969 1.187-.333.333-.68.654-1 1-.73.788-.847.847-1 1M34.5 35.5c-.233-.296-1.228-1.826-1-2 .282-.215.78.208 1 0 .182-.172-.117-.504 0-1 .112-.478.556-.877 1-1 .528-.146.897.145 1 0 .198-.279-1.238-1.262-1-2 .147-.458.803-.402 1-1 .132-.402-.127-.54 0-1 .129-.465.537-.845 1-1 .132-.044.572-.192 1 0 .542.243.458.757 1 1 .305.137.695.137 1 0 .541-.242.483-.767 1-1 .343-.154.513.01 1 0 1.117-.024 1.94-.931 2-1 .503-.571.248-.8 1-2 .401-.641.665-.88 1-1 .095-.034.556-.199 1 0 .54.241.485.764 1 1 .267.122.44.055 1 0 .071-.007.714-.005 2 0 1.905.007 1.82.044 2 0 1.01-.247.991-.753 2-1 .698-.17.683.077 2 0 1.198-.07 1.775-.308 2 0 .086.117.021.178 0 1-.009.335.27.65.276 1.042.011.891.043.835-.005.958-.208.53-.362.659-.604 1.188-.09.197-.12.274-.084 1.02.053 1.097.356.848.417 1.792.048.738.125.886 0 1-.336.305-2.173-.264-2.583-1.125-.431-.905-.122-1.673-.417-1.875-.404-.278-2.233 1.126-2.5 2.016-.053.176-.284.452.578 1.234.872.79 1.249 1.084 1.328 1.156.485.438 1.008 1.028.594 1.594-.557.76-1.615.316-2 1-.345.613.386 1.185 0 2-.111.235-.407.49-1 1-.66.568-.904.65-1 1-.128.467.185.783 0 1-.237.279-.967.013-1 0-1.29-.484-1.342-1.97-2-2-.789-.036-1.221 2.078-2 2-.175-.018-.45-.345-1-1-.53-.63-.642-.862-1-1-.458-.177-.891-.037-1 0-.18.061-.503.222-1 1-.707 1.108-.438 1.395-1 2-.476.513-.858.509-1 1-.03.104-.02.403 0 1 .02.614.03.922 0 1-.208.531-.762.47-1 1-.163.363.026.551 0 1-.06 1.034-1.19 2.148-2 2-.322-.059-.548-.373-1-1-.4-.555-.828-1.15-1-2-.184-.915.154-1.01 0-2-.078-.502-.253-1.632-1-2-.716-.353-1.245.348-2 0-.702-.324-1.023-1.29-1-2 .025-.76.444-1.293 1-2 .436-.554.654-.831 1-1M54.5 44.5c-1.18.58-1.744.453-2 1-.199.424-.04.886 0 1 .243.704.925.972 1 1 .864.324 1.339-.354 2 0 .504.27.426.771 1 1 .316.126.597.076 1 0 .693-.131 1.583-.3 2-1 .3-.501.198-1.01 0-2-.153-.768-.355-1.778-1-2-.126-.043-.138-.012-1 0-.731.01-.806-.012-1 0-.765.046-.904.462-2 1z"
				></path>
			</g>
		</symbol>
		<symbol viewBox="0 0 72 72" id="openmoji-red-circle">
			<circle cx="36" cy="36" r="28" fill="#d22f27"></circle>
			<circle
				cx="36"
				cy="36"
				r="28"
				fill="none"
				stroke="#000"
				stroke-linejoin="round"
				stroke-width="2"
			></circle>
		</symbol>
		<symbol viewBox="0 0 72 72" id="openmoji-raised-hand-medium-skin-tone">
			<path
				fill="#ba8f5e"
				d="M30.614 13.738a3.531 3.531 0 1 0-6.999-.095l-.257 18.998.022 4.325.176-12.999a3.531 3.531 0 1 0-7-.095l-.176 13 .053 10.084c.425 8.31 7.752 13.63 16.06 13.205a19.617 19.617 0 0 0 12.728-5.657c2.918-3.09 10.085-11.535 10.085-11.535 1.463-2.158.329-5.494-.8-4.673l-9.876 4.651-.039-5.4.039 5.4-.039-5.4.04-21.85a3.531 3.531 0 1 0-7-.095l-.094 7-.186 10.636.367-22.193a3.531 3.531 0 1 0-7-.094l-.206 24.016"
			></path>
			<path
				fill="none"
				stroke="#000"
				stroke-linecap="round"
				stroke-linejoin="round"
				stroke-width="2"
				d="M30.614 13.738a3.531 3.531 0 1 0-6.999-.095l-.257 18.998.005.951.193-9.625a3.531 3.531 0 1 0-7-.095l-.176 13 .053 10.084c.425 8.31 7.752 13.63 16.06 13.205a19.617 19.617 0 0 0 12.728-5.657c2.918-3.09 10.085-11.535 10.085-11.535 1.463-2.158.329-5.494-.8-4.673l-9.876 4.651-.039-5.4.039 5.4-.039-5.4.04-21.85a3.531 3.531 0 1 0-7-.095l-.094 7-.186 10.636.367-22.193a3.531 3.531 0 1 0-7-.094l-.175 20.454"
			></path>
		</symbol>
		<symbol viewBox="0 0 72 72" id="openmoji-raised-fist-medium-skin-tone">
			<g fill="#ba8f5e">
				<path
					d="M21.241 36.167a3.786 3.786 0 0 1-3.5-4v-7a3.531 3.531 0 1 1 7 0v7a3.786 3.786 0 0 1-3.5 4zM41.757 38.936a3.786 3.786 0 0 1-3.5-4v-15a3.531 3.531 0 1 1 7 0v15a3.786 3.786 0 0 1-3.5 4z"
				></path>
				<path
					d="M35.206 38.936a3.786 3.786 0 0 1-3.5-4v-15a3.531 3.531 0 1 1 7 0v15a3.786 3.786 0 0 1-3.5 4zM27.553 40.167a3.786 3.786 0 0 1-3.5-4v-15a3.531 3.531 0 1 1 7 0v15a3.786 3.786 0 0 1-3.5 4zM20.037 41.17a3.786 3.786 0 0 1-3.5-4v-15a3.531 3.531 0 1 1 7 0v15a3.786 3.786 0 0 1-3.5 4z"
				></path>
				<path
					d="M31.982 16.333c-.258-1.933 2.758-.184 6.218.457 2.333.431 4.58-3.02 4.838-1.087-.237.869 3.733-2.537 3.151 7.803M44.212 20.053l-.034.642"
				></path>
				<path
					d="M15.75 36.167c1.142 8.856 10.78 19.584 19.455 19.453 9.667 0 19.357-8.719 19.357-19.062l-.928-10.535c0-5.152-14.1-4.138-16.3-4.092L16 29.427"
				></path>
			</g>
			<g fill="none" stroke="#000" stroke-linecap="round" stroke-width="2">
				<path
					stroke-linejoin="round"
					d="M43.741 34.99v-2.334c0-1.1-1.789-2.2-3.976-2.44l-1.049-.118c-2.187-.242-3.976-1.85-3.976-3.774s1.8-3.334 4-3.334h10a4.164 4.164 0 0 1 4.235 3.826l.657 11.213M37.963 38.055c1.63-1.48 3.624-2.5 5.777-2.958"
				></path>
				<path
					stroke-miterlimit="10"
					d="M16.776 39.479c1.199 9.03 8.965 15.732 18.073 15.598 10.149 0 18.785-7.174 18.785-17.72"
				></path>
				<path
					stroke-linejoin="round"
					d="M16.776 39.479v-3.521M20.308 32.965a3.786 3.786 0 0 1-3.5-4v-7a3.531 3.531 0 1 1 7 0v7a3.786 3.786 0 0 1-3.5 4z"
				></path>
				<path
					stroke-linejoin="round"
					d="M28.744 31.827c-3.322 1.227-4.997-1.934-4.874-4v-7a3.531 3.531 0 1 1 7 0"
				></path>
				<path
					stroke-linejoin="round"
					d="M30.932 24.466v-5.318a3.531 3.531 0 1 1 7 0"
				></path>
				<path
					stroke-linejoin="round"
					d="M37.995 19.148a3.531 3.531 0 1 1 7 0"
				></path>
			</g>
		</symbol>
		<symbol viewBox="0 0 72 72" id="openmoji-locked-with-key">
			<path
				fill="#D0CFCE"
				stroke="#D0CFCE"
				stroke-linecap="round"
				stroke-linejoin="round"
				stroke-miterlimit="10"
				stroke-width="2"
				d="M14.196 35.652c-.2-7.666 5.579-16.384 12.452-16.6 6.93-.219 14.414 10.252 12.41 17.173h-3.183s.79-7.133-2.234-10.144c-.542-1.536-4.55-4.3-7.48-3.869-1.977.291-6.392 2.807-7.31 4.581-1.028 1.984-1.17 8.859-1.17 8.859h-3.485z"
			></path>
			<path
				fill="#FCEA2B"
				d="M41.698 36.361h1.63v23.372H10.283V36.361h1.63z"
			></path>
			<path fill="#F1B31C" d="M42.942 36.532 26.619 59.578h16.79z"></path>
			<path
				fill="#F4AA41"
				d="M55.94 32.583c3.583-1.818 6.069-5.786 6.069-10.389 0-6.321-4.69-11.446-10.473-11.446s-10.474 5.125-10.474 11.446c0 5.112 3.1 10.046 7.358 10.62"
			></path>
			<path
				fill="#F4AA41"
				stroke="#F4AA41"
				stroke-linecap="round"
				stroke-linejoin="round"
				stroke-miterlimit="10"
				stroke-width="2"
				d="m56.027 32.349-.011 3.077.156 20.725-4.502 4.501-3.66-4.66 2.883-2.883-3.157-3.157 2.641-3.641-3.14-3.141.014-2.976 2.709-2.71-1.241-1.241v-3.894"
			></path>
			<path
				fill="#E27022"
				d="m53.544 57.09 1.2-1.202-.219-19.827-1.214.013z"
			></path>
			<circle
				cx="51.535"
				cy="18.109"
				r="3.521"
				fill="#E27022"
				transform="rotate(-45.001 51.535 18.11)"
			></circle>
			<g
				fill="none"
				stroke="#000"
				stroke-linecap="round"
				stroke-linejoin="round"
				stroke-miterlimit="10"
				stroke-width="2"
			>
				<path
					d="M39.467 33.42c.581-8.034-5.889-14.587-12.82-14.369-6.872.217-12.45 7.083-12.45 14.37M41.698 36.321h1.63v23.371H10.283V36.321h1.63z"
				></path>
				<path
					d="M17.825 33.42c0-5.509 3.979-10.7 8.88-10.864 4.944-.165 9.559 4.79 9.144 10.864M56.025 36.026l.257 20.446-4.561 4.56-4.766-4.765 2.921-2.921-3.228-3.228 3.689-3.69-3.211-3.211v-3.03l2.745-2.745-1.269-1.269"
				></path>
				<circle
					cx="51.535"
					cy="18.109"
					r="3.521"
					transform="rotate(-45.001 51.535 18.11)"
				></circle>
				<path
					d="M56.017 31.636c3.57-1.769 6.027-5.59 5.993-10-.046-6.057-4.772-10.932-10.556-10.888-5.784.044-10.435 4.99-10.39 11.047.038 4.898 3.134 9.022 7.376 10.399"
				></path>
			</g>
		</symbol>
		<symbol viewBox="0 0 72 72" id="openmoji-handshake-medium-skin-tone">
			<path
				fill="#ba8f5e"
				d="M62.622 40.338c.96 3.25-1.109 5.983-4.435 5.392.443 3.249-2.735 6.13-6.579 4.283 1.478 3.766-1.997 5.908-4.731 4.283 1.403 1.699-.813 7.46-9.387 1.994l-1.643-.903L16.51 44.752l-1.459-.802s-7.133-5.822-8.537-8.259c-4.392-7.595.949-19.79 10.44-21.82l7.943-1.424 5.239 7.947 13.073 6.004L56 33.58l3.685 3.768Z"
			></path>
			<g fill="#ba8f5e">
				<path
					d="M62.622 40.338c6.721-4.585 5.041-19.03-.099-25.36-9.287-1.459-11-2.362-20.98-3.943l-13.53-.618a3.993 3.993 0 0 0-4.779 2.533 32.857 32.857 0 0 1-3.599 8.378 3.539 3.539 0 0 0 1.872 4.588c1.908.476 2.78-.386 4.46-1.686a25.954 25.954 0 0 0 3.805-4.575l13.64 6.204 12.72 7.164c2.514 1.697 5.012 5.843 6.51 7.32M31.51 54.15a3.022 3.022 0 0 1 4.144-.9c1.405.813 2.439 2.362 1.478 4.063l-1.774 3.101a3.27 3.27 0 0 1-5.658-3.172l1.81-3.094ZM25.84 50.98a3.022 3.022 0 0 1 4.144-.9c1.405.813 2.439 2.362 1.478 4.063l-1.774 3.101a3.27 3.27 0 0 1-5.658-3.171l1.81-3.094Z"
				></path>
				<path
					d="M20.18 47.82a3.022 3.022 0 0 1 4.144-.9c1.405.813 2.439 2.362 1.478 4.063l-1.774 3.101a3.27 3.27 0 0 1-5.658-3.171l1.81-3.094Z"
				></path>
				<path
					d="M14.53 44.65a3.022 3.022 0 0 1 4.144-.9c1.405.813 2.439 2.362 1.478 4.063l-1.774 3.101a3.27 3.27 0 0 1-5.658-3.171l1.81-3.094Z"
				></path>
			</g>
			<g
				fill="none"
				stroke="#000"
				stroke-linecap="round"
				stroke-linejoin="round"
				stroke-width="2"
			>
				<path
					d="M15.05 43.95s-7.133-5.822-8.537-8.259c-4.392-7.595.949-19.79 10.44-21.82M38.71 42.99l12.89 7.021M33.87 47.79l13 6.498M58.18 45.72l-5.1-4.358-8.279-4.335M29.772 19.654l13.64 6.204 12.72 7.164c2.514 1.698 5.012 5.844 6.51 7.321"
				></path>
				<path
					d="M37.49 56.29c8.574 5.466 10.79-.295 9.387-1.994 2.734 1.625 6.209-.517 4.731-4.283 3.844 1.847 7.022-1.034 6.579-4.283 3.326.591 5.395-2.142 4.435-5.392 6.721-4.585 5.041-19.03-.099-25.36-9.287-1.459-11-2.362-20.98-3.943l-13.53-.619a3.993 3.993 0 0 0-4.779 2.533 32.857 32.857 0 0 1-3.599 8.378 3.539 3.539 0 0 0 1.872 4.588c1.908.477 2.78-.386 4.46-1.686a25.954 25.954 0 0 0 3.805-4.575"
				></path>
				<path
					d="M31.51 54.15a3.022 3.022 0 0 1 4.144-.9c1.405.813 2.439 2.362 1.478 4.063l-1.774 3.101a3.27 3.27 0 0 1-5.658-3.172l1.81-3.094ZM25.84 50.98a3.022 3.022 0 0 1 4.144-.9c1.405.813 2.439 2.362 1.478 4.063l-1.774 3.101a3.27 3.27 0 0 1-5.658-3.171l1.81-3.094Z"
				></path>
				<path
					d="M20.18 47.82a3.022 3.022 0 0 1 4.144-.9c1.405.813 2.439 2.362 1.478 4.063l-1.774 3.101a3.27 3.27 0 0 1-5.658-3.171l1.81-3.094Z"
				></path>
				<path
					d="M14.53 44.65a3.022 3.022 0 0 1 4.144-.9c1.405.813 2.439 2.362 1.478 4.063l-1.774 3.101a3.27 3.27 0 0 1-5.658-3.171l1.81-3.094Z"
				></path>
			</g>
		</symbol>
		<symbol viewBox="0 0 72 72" id="openmoji-bust-in-silhouette">
			<g fill="#D0CFCE">
				<path
					d="M58 61s0-3-1-7c-1.21-4.846-4-8-10-8H25c-6 0-8.79 3.154-10 8-1 4-1 7-1 7h44zM26 26c0 3.725.54 7.809 2 10 1.861 2.793 5.018 4 8 4 3.096 0 6.137-1.207 8-4 1.46-2.191 2-6.275 2-10 0-2.793-1-12-10-12s-10 7.344-10 12z"
				></path>
			</g>
			<g fill="none" stroke="#000" stroke-linejoin="round" stroke-width="2">
				<path
					stroke-linecap="round"
					d="M58 60s0-2-1-6c-1.21-4.846-4-8-10-8H25c-6 0-8.79 3.154-10 8-1 4-1 6-1 6"
				></path>
				<path
					d="M26 26c0 3.725.54 7.809 2 10 1.861 2.793 5.018 4 8 4 3.096 0 6.137-1.207 8-4 1.46-2.191 2-6.275 2-10 0-2.793-1-12-10-12s-10 7.344-10 12z"
				></path>
			</g>
		</symbol>
		<symbol viewBox="0 0 72 72" id="openmoji-bar-chart">
			<path fill="#fff" d="M12.05 12.05h47.9v47.9h-47.9z"></path>
			<path fill="#b1cc33" d="M18.32 37.6h8v21.41h-8z"></path>
			<path fill="#92d3f5" d="M46.25 44.38h8V59h-8z"></path>
			<path fill="#d22f27" d="M32.28 21.69h8v37.32h-8z"></path>
			<g
				fill="none"
				stroke="#000"
				stroke-linecap="round"
				stroke-linejoin="round"
				stroke-miterlimit="10"
				stroke-width="2"
			>
				<path
					d="M18.03 59.01V37.6h8v21.41M45.97 59.01V44.39h8v14.62M12.75 31.28h15.74M43.51 40.82h15.94M57.48 50.37h1.69"
				></path>
				<path d="M12.05 12.05h47.9v47.9h-47.9z"></path>
				<path
					d="M32 59.01V21.73h8v37.28M12.39 40.82h2.13M12.39 50.37h2.13M43.51 31.28h15.94M43.51 21.74h15.94M12.75 21.74h15.74"
				></path>
			</g>
		</symbol>
		<symbol viewBox="0 -960 960 960" id="material-symbols-new-window">
			<path
				d="M200-120q-33 0-56.5-23.5T120-200v-560q0-33 23.5-56.5T200-840h240v80H200v560h560v-240h80v240q0 33-23.5 56.5T760-120H200Zm440-400v-120H520v-80h120v-120h80v120h120v80H720v120h-80Z"
			></path>
		</symbol>
		<symbol viewBox="0 -960 960 960" id="material-symbols-encrypted">
			<path
				d="M429.62-370h100.76l-22.61-126.31q18.84-8.08 30.34-25.34 11.5-17.27 11.5-38.35 0-28.77-20.42-49.19-20.42-20.42-49.19-20.42-28.77 0-49.19 20.42-20.42 20.42-20.42 49.19 0 21.08 11.5 38.35 11.5 17.26 30.34 25.34L429.62-370ZM480-100.77q-129.77-35.39-214.88-152.77Q180-370.92 180-516v-230.15l300-112.31 300 112.31V-516q0 145.08-85.12 262.46Q609.77-136.16 480-100.77Zm0-63.23q104-33 172-132t68-220v-189l-240-89.62L240-705v189q0 121 68 220t172 132Zm0-315.62Z"
			></path>
		</symbol>
		<symbol viewBox="0 -960 960 960" id="material-symbols-computer">
			<path
				d="M40-120v-80h880v80H40Zm120-120q-33 0-56.5-23.5T80-320v-440q0-33 23.5-56.5T160-840h640q33 0 56.5 23.5T880-760v440q0 33-23.5 56.5T800-240H160Zm0-80h640v-440H160v440Zm0 0v-440 440Z"
			></path>
		</symbol>
		<symbol viewBox="0 0 24 24" id="material-person-add">
			<path d="M0 0h24v24H0z" fill="none"></path>
			<path
				d="M15 12c2.21 0 4-1.79 4-4s-1.79-4-4-4-4 1.79-4 4 1.79 4 4 4zm-9-2V7H4v3H1v2h3v3h2v-3h3v-2H6zm9 4c-2.67 0-8 1.34-8 4v2h16v-2c0-2.66-5.33-4-8-4z"
			></path>
		</symbol>
		<symbol
			enable-background="new 0 0 24 24"
			viewBox="0 0 24 24"
			id="material-hiking"
		>
			<rect fill="none" height="24" width="24"></rect>
			<path
				d="M13.5,5.5c1.1,0,2-0.9,2-2s-0.9-2-2-2s-2,0.9-2,2S12.4,5.5,13.5,5.5z M17.5,10.78c-1.23-0.37-2.22-1.17-2.8-2.18l-1-1.6 c-0.41-0.65-1.11-1-1.84-1c-0.78,0-1.59,0.5-1.78,1.44S7,23,7,23h2.1l1.8-8l2.1,2v6h2v-7.5l-2.1-2l0.6-3c1,1.15,2.41,2.01,4,2.34V23 H19V9h-1.5L17.5,10.78z M7.43,13.13l-2.12-0.41c-0.54-0.11-0.9-0.63-0.79-1.17l0.76-3.93c0.21-1.08,1.26-1.79,2.34-1.58l1.16,0.23 L7.43,13.13z"
			></path>
		</symbol>
		<symbol viewBox="0 0 24 24" id="material-expand-more">
			<path d="M0 0h24v24H0z" fill="none"></path>
			<path d="M16.59 8.59L12 13.17 7.41 8.59 6 10l6 6 6-6z"></path>
		</symbol>
		<symbol viewBox="0 0 24 24" id="material-expand-less">
			<path d="M0 0h24v24H0z" fill="none"></path>
			<path d="M12 8l-6 6 1.41 1.41L12 10.83l4.59 4.58L18 14z"></path>
		</symbol>
		<symbol id="material-check-circle">
			<path fill="none" d="M0 0h24v24H0V0z"></path>
			<path
				d="M12 2C6.48 2 2 6.48 2 12s4.48 10 10 10 10-4.48 10-10S17.52 2 12 2zM9.29 16.29 5.7 12.7a.996.996 0 1 1 1.41-1.41L10 14.17l6.88-6.88a.996.996 0 1 1 1.41 1.41l-7.59 7.59a.996.996 0 0 1-1.41 0z"
			></path>
		</symbol>
		<symbol viewBox="0 0 24 24" id="material-bolt">
			<path
				d="M11 21h-1l1-7H7.5c-.58 0-.57-.32-.38-.66.19-.34.05-.08.07-.12C8.48 10.94 10.42 7.54 13 3h1l-1 7h3.5c.49 0 .56.33.47.51l-.07.15C12.96 17.55 11 21 11 21z"
			></path>
		</symbol>
		<symbol viewBox="0 0 24 24" id="material-arrow-back">
			<path d="M0 0h24v24H0z" fill="none"></path>
			<path
				d="M20 11H7.83l5.59-5.59L12 4l-8 8 8 8 1.41-1.41L7.83 13H20v-2z"
			></path>
		</symbol>
	</defs>
</svg>
