<svg xmlns="http://www.w3.org/2000/svg" width="40" height="60" fill="none" viewBox="0 0 40 60"><path fill="currentColor" d="M21.25 60C22.5 40 40 35 40 20c0-5.523-2.24-10.522-5.86-14.142A19.94 19.94 0 0 0 20 0 19.94 19.94 0 0 0 5.86 5.858 19.94 19.94 0 0 0 0 20c0 15 17.5 20 18.75 40zM12.5 20a7.501 7.501 0 0 1 15 0 7.501 7.501 0 0 1-15 0"/><rect width="38" height="38" x="1" y="1" fill="currentColor" rx="19"/><rect width="38" height="38" x="1" y="1" stroke="currentColor" stroke-width="2" rx="19"/></svg>