<svg xmlns="http://www.w3.org/2000/svg" width="24" height="24" viewBox="0 0 24 24"><g style="transform-origin:.000067px 12px 0"><path id="a" d="M6.055 19.222 8.466 5.156c.401-2.331 2.56-3.887 4.826-3.477l.357.066C13.332.568 12.2-.172 11.029.034L1.912 1.687C.655 1.917-.185 3.151.034 4.445l2.411 14.066c.225 1.294 1.424 2.156 2.682 1.931l.882-.16a4.373 4.373 0 0 1 .046-1.06Z" opacity=".6"/><path id="b" d="M19.274 23.046c-.081 0-.161-.007-.24-.022l-9.117-1.652c-.752-.141-1.255-.877-1.127-1.653l2.412-14.066c.14-.772.855-1.286 1.608-1.16l9.117 1.654c.753.14 1.257.877 1.128 1.653l-2.414 14.066a1.416 1.416 0 0 1-1.367 1.181v-.001Z" opacity=".3"/><path id="c" d="M12.57 5.421c.026 0 .052.003.078.008l9.118 1.653a.48.48 0 0 1 .376.551l-2.413 14.066a.479.479 0 0 1-.537.387l-9.117-1.654a.482.482 0 0 1-.376-.55L12.11 5.816a.481.481 0 0 1 .458-.395h.002Zm-.002-1.904c-1.123.003-2.083.831-2.282 1.967L7.878 19.55c-.219 1.294.62 2.528 1.877 2.76l9.118 1.653c1.259.228 2.459-.637 2.681-1.932l2.411-14.066c.217-1.293-.621-2.525-1.877-2.757l-9.117-1.653a2.261 2.261 0 0 0-.402-.038h-.001Z"/></g></svg>