<svg xmlns="http://www.w3.org/2000/svg" width="24" height="24" fill="currentColor" viewBox="0 -960 960 960"><path d="M607.5-372.5Q660-425 660-500t-52.5-127.5T480-680t-127.5 52.5T300-500t52.5 127.5T480-320t127.5-52.5m-204-51Q372-455 372-500t31.5-76.5T480-608t76.5 31.5T588-500t-31.5 76.5T480-392t-76.5-31.5M214-281.5Q94-363 40-500q54-137 174-218.5T480-800t266 81.5T920-500q-54 137-174 218.5T480-200t-266-81.5m473.5-58Q782-399 832-500q-50-101-144.5-160.5T480-720t-207.5 59.5T128-500q50 101 144.5 160.5T480-280t207.5-59.5"/></svg>