<svg xmlns="http://www.w3.org/2000/svg" width="24" height="24" fill="currentColor" viewBox="0 -960 960 960"><path d="M240-160q-33 0-56.5-23.5T160-240t23.5-56.5T240-320t56.5 23.5T320-240t-23.5 56.5T240-160m240 0q-33 0-56.5-23.5T400-240t23.5-56.5T480-320t56.5 23.5T560-240t-23.5 56.5T480-160m240 0q-33 0-56.5-23.5T640-240t23.5-56.5T720-320t56.5 23.5T800-240t-23.5 56.5T720-160M240-400q-33 0-56.5-23.5T160-480t23.5-56.5T240-560t56.5 23.5T320-480t-23.5 56.5T240-400m240 0q-33 0-56.5-23.5T400-480t23.5-56.5T480-560t56.5 23.5T560-480t-23.5 56.5T480-400m240 0q-33 0-56.5-23.5T640-480t23.5-56.5T720-560t56.5 23.5T800-480t-23.5 56.5T720-400M240-640q-33 0-56.5-23.5T160-720t23.5-56.5T240-800t56.5 23.5T320-720t-23.5 56.5T240-640m240 0q-33 0-56.5-23.5T400-720t23.5-56.5T480-800t56.5 23.5T560-720t-23.5 56.5T480-640m240 0q-33 0-56.5-23.5T640-720t23.5-56.5T720-800t56.5 23.5T800-720t-23.5 56.5T720-640"/></svg>