<svg width="60" height="52" viewBox="0 0 60 52" fill="none" xmlns="http://www.w3.org/2000/svg"><path d="M60 14.55V9.56058C60 8.63234 59.8172 7.7132 59.462 6.85562C59.1068 5.99805 58.5861 5.21883 57.9297 4.56247C57.2734 3.90611 56.4942 3.38546 55.6366 3.03024C54.779 2.67502 53.8599 2.49219 52.9317 2.49219C52.0034 2.49219 51.0843 2.67502 50.2267 3.03024C49.3691 3.38546 48.5899 3.90611 47.9336 4.56247C47.2772 5.21883 46.7565 5.99805 46.4013 6.85562C46.0461 7.7132 45.8633 8.63234 45.8633 9.56058V42.3246C45.8676 43.4147 46.258 44.4679 46.9651 45.2975L51.7051 50.8275C51.9012 51.0545 52.1437 51.2369 52.4163 51.3624C52.6888 51.4879 52.985 51.5536 53.2851 51.5551H53.3474C53.6596 51.5456 53.9656 51.466 54.2427 51.322C54.5199 51.178 54.761 50.9735 54.9482 50.7236L59.0853 45.152C59.6814 44.3615 60.0026 43.3978 60 42.4078V14.55ZM50.0211 9.56058C50.0211 8.78866 50.3278 8.04836 50.8736 7.50253C51.4194 6.95671 52.1597 6.65006 52.9317 6.65006C53.7036 6.65006 54.4439 6.95671 54.9897 7.50253C55.5355 8.04836 55.8422 8.78866 55.8422 9.56058V12.4711H50.0211V9.56058Z" fill="currentColor"/><path d="M6.2368 51.5577H32.8472C34.4997 51.5527 36.0832 50.8941 37.2518 49.7255C38.4203 48.5569 39.079 46.9734 39.084 45.3208V8.73154C39.079 7.07895 38.4203 5.49546 37.2518 4.3269C36.0832 3.15834 34.4997 2.49966 32.8472 2.49473H30.3524V2.07894C30.3524 1.52757 30.1334 0.998784 29.7435 0.608907C29.3536 0.219031 28.8249 0 28.2735 0C27.7221 0 27.1933 0.219031 26.8035 0.608907C26.4136 0.998784 26.1946 1.52757 26.1946 2.07894V2.49473H21.6209V2.07894C21.6209 1.52757 21.4019 0.998784 21.012 0.608907C20.6221 0.219031 20.0933 0 19.542 0C18.9906 0 18.4618 0.219031 18.072 0.608907C17.6821 0.998784 17.463 1.52757 17.463 2.07894V2.49473H12.8894V2.07894C12.8894 1.52757 12.6704 0.998784 12.2805 0.608907C11.8906 0.219031 11.3618 0 10.8105 0C10.2591 0 9.7303 0.219031 9.34043 0.608907C8.95055 0.998784 8.73152 1.52757 8.73152 2.07894V2.49473H6.2368C4.58422 2.49966 3.00073 3.15834 1.83217 4.3269C0.66361 5.49546 0.00493558 7.07895 0 8.73154V45.3208C0.00493558 46.9734 0.66361 48.5569 1.83217 49.7255C3.00073 50.8941 4.58422 51.5527 6.2368 51.5577ZM10.8105 37.4209H28.2735C28.8249 37.4209 29.3536 37.6399 29.7435 38.0298C30.1334 38.4197 30.3524 38.9485 30.3524 39.4998C30.3524 40.0512 30.1334 40.58 29.7435 40.9699C29.3536 41.3597 28.8249 41.5788 28.2735 41.5788H10.8105C10.2591 41.5788 9.7303 41.3597 9.34043 40.9699C8.95055 40.58 8.73152 40.0512 8.73152 39.4998C8.73152 38.9485 8.95055 38.4197 9.34043 38.0298C9.7303 37.6399 10.2591 37.4209 10.8105 37.4209ZM8.73152 32.0156C8.73152 31.4643 8.95055 30.9355 9.34043 30.5456C9.7303 30.1557 10.2591 29.9367 10.8105 29.9367H28.2735C28.8249 29.9367 29.3536 30.1557 29.7435 30.5456C30.1334 30.9355 30.3524 31.4643 30.3524 32.0156C30.3524 32.567 30.1334 33.0958 29.7435 33.4857C29.3536 33.8756 28.8249 34.0946 28.2735 34.0946H10.8105C10.2591 34.0946 9.7303 33.8756 9.34043 33.4857C8.95055 33.0958 8.73152 32.567 8.73152 32.0156ZM28.2735 26.6104H10.8105C10.2591 26.6104 9.7303 26.3914 9.34043 26.0015C8.95055 25.6116 8.73152 25.0828 8.73152 24.5315C8.73152 23.9801 8.95055 23.4513 9.34043 23.0614C9.7303 22.6716 10.2591 22.4525 10.8105 22.4525H28.2735C28.8249 22.4525 29.3536 22.6716 29.7435 23.0614C30.1334 23.4513 30.3524 23.9801 30.3524 24.5315C30.3524 25.0828 30.1334 25.6116 29.7435 26.0015C29.3536 26.3914 28.8249 26.6104 28.2735 26.6104ZM4.15787 8.73154C4.15787 8.18017 4.3769 7.65138 4.76677 7.26151C5.15665 6.87163 5.68543 6.6526 6.2368 6.6526H8.73152V8.31575C8.73152 8.86712 8.95055 9.39591 9.34043 9.78578C9.7303 10.1757 10.2591 10.3947 10.8105 10.3947C11.3618 10.3947 11.8906 10.1757 12.2805 9.78578C12.6704 9.39591 12.8894 8.86712 12.8894 8.31575V6.6526H17.463V8.31575C17.463 8.86712 17.6821 9.39591 18.072 9.78578C18.4618 10.1757 18.9906 10.3947 19.542 10.3947C20.0933 10.3947 20.6221 10.1757 21.012 9.78578C21.4019 9.39591 21.6209 8.86712 21.6209 8.31575V6.6526H26.1946V8.31575C26.1946 8.86712 26.4136 9.39591 26.8035 9.78578C27.1933 10.1757 27.7221 10.3947 28.2735 10.3947C28.8249 10.3947 29.3536 10.1757 29.7435 9.78578C30.1334 9.39591 30.3524 8.86712 30.3524 8.31575V6.6526H32.8472C33.3985 6.6526 33.9273 6.87163 34.3172 7.26151C34.7071 7.65138 34.9261 8.18017 34.9261 8.73154V13.721H4.15787V8.73154Z" fill="currentColor"/></svg>
