<svg xmlns="http://www.w3.org/2000/svg" xml:space="preserve" viewBox="0 0 512 640"><path d="M2 343.232v44.544c0 13.965 11.36 25.326 25.325 25.326h457.35c13.964 0 25.325-11.361 25.325-25.326v-44.544zM320.844 464.939H309.83v-35.837H202.17v35.837h-11.013a8 8 0 1 0 0 16h129.688a8 8 0 1 0 0-16M181.362 254.6c-7.017 0-12.725 5.709-12.725 12.725s5.708 12.726 12.725 12.726 12.726-5.71 12.726-12.726-5.709-12.725-12.726-12.725"/><path d="M484.675 31.061H27.325C13.361 31.061 2 42.421 2 56.386v270.846h508V56.386c0-13.964-11.36-25.325-25.325-25.325m-303.313 264.99c-15.84 0-28.725-12.887-28.725-28.726s12.886-28.725 28.725-28.725 28.726 12.886 28.726 28.725-12.886 28.726-28.726 28.726m31.688-122.109-35.283 35.284c-1.562 1.561-3.61 2.342-5.657 2.342s-4.095-.78-5.657-2.342l-16.778-16.778a8 8 0 0 1 11.313-11.314l11.122 11.12 29.626-29.626a8 8 0 0 1 11.313 11.314m0-78.067-35.283 35.283c-1.562 1.562-3.61 2.343-5.657 2.343s-4.095-.781-5.657-2.343l-16.778-16.777a8 8 0 0 1 11.313-11.315l11.122 11.121 29.626-29.626a8 8 0 0 1 11.313 11.314m143.618 179.45h-111.03a8 8 0 0 1 0-16h111.03a8 8 0 0 1 0 16m0-78.067h-111.03a8 8 0 0 1 0-16h111.03a8 8 0 0 1 0 16m0-78.068h-111.03a8 8 0 0 1 0-16h111.03a8 8 0 0 1 0 16"/></svg>