<svg xmlns="http://www.w3.org/2000/svg" viewBox="0 0 72 72"><path fill="#ba8f5e" d="M62.622 40.338c.96 3.25-1.109 5.983-4.435 5.392.443 3.249-2.735 6.13-6.579 4.283 1.478 3.766-1.997 5.908-4.731 4.283 1.403 1.699-.813 7.46-9.387 1.994l-1.643-.903L16.51 44.752l-1.459-.802s-7.133-5.822-8.537-8.259c-4.392-7.595.949-19.79 10.44-21.82l7.943-1.424 5.239 7.947 13.073 6.004L56 33.58l3.685 3.768Z"/><g fill="#ba8f5e"><path d="M62.622 40.338c6.721-4.585 5.041-19.03-.099-25.36-9.287-1.459-11-2.362-20.98-3.943l-13.53-.618a3.993 3.993 0 0 0-4.779 2.533 32.857 32.857 0 0 1-3.599 8.378 3.539 3.539 0 0 0 1.872 4.588c1.908.476 2.78-.386 4.46-1.686a25.954 25.954 0 0 0 3.805-4.575l13.64 6.204 12.72 7.164c2.514 1.697 5.012 5.843 6.51 7.32M31.51 54.15a3.022 3.022 0 0 1 4.144-.9c1.405.813 2.439 2.362 1.478 4.063l-1.774 3.101a3.27 3.27 0 0 1-5.658-3.172l1.81-3.094ZM25.84 50.98a3.022 3.022 0 0 1 4.144-.9c1.405.813 2.439 2.362 1.478 4.063l-1.774 3.101a3.27 3.27 0 0 1-5.658-3.171l1.81-3.094Z"/><path d="M20.18 47.82a3.022 3.022 0 0 1 4.144-.9c1.405.813 2.439 2.362 1.478 4.063l-1.774 3.101a3.27 3.27 0 0 1-5.658-3.171l1.81-3.094Z"/><path d="M14.53 44.65a3.022 3.022 0 0 1 4.144-.9c1.405.813 2.439 2.362 1.478 4.063l-1.774 3.101a3.27 3.27 0 0 1-5.658-3.171l1.81-3.094Z"/></g><g fill="none" stroke="#000" stroke-linecap="round" stroke-linejoin="round" stroke-width="2"><path d="M15.05 43.95s-7.133-5.822-8.537-8.259c-4.392-7.595.949-19.79 10.44-21.82M38.71 42.99l12.89 7.021M33.87 47.79l13 6.498M58.18 45.72l-5.1-4.358-8.279-4.335M29.772 19.654l13.64 6.204 12.72 7.164c2.514 1.698 5.012 5.844 6.51 7.321"/><path d="M37.49 56.29c8.574 5.466 10.79-.295 9.387-1.994 2.734 1.625 6.209-.517 4.731-4.283 3.844 1.847 7.022-1.034 6.579-4.283 3.326.591 5.395-2.142 4.435-5.392 6.721-4.585 5.041-19.03-.099-25.36-9.287-1.459-11-2.362-20.98-3.943l-13.53-.619a3.993 3.993 0 0 0-4.779 2.533 32.857 32.857 0 0 1-3.599 8.378 3.539 3.539 0 0 0 1.872 4.588c1.908.477 2.78-.386 4.46-1.686a25.954 25.954 0 0 0 3.805-4.575"/><path d="M31.51 54.15a3.022 3.022 0 0 1 4.144-.9c1.405.813 2.439 2.362 1.478 4.063l-1.774 3.101a3.27 3.27 0 0 1-5.658-3.172l1.81-3.094ZM25.84 50.98a3.022 3.022 0 0 1 4.144-.9c1.405.813 2.439 2.362 1.478 4.063l-1.774 3.101a3.27 3.27 0 0 1-5.658-3.171l1.81-3.094Z"/><path d="M20.18 47.82a3.022 3.022 0 0 1 4.144-.9c1.405.813 2.439 2.362 1.478 4.063l-1.774 3.101a3.27 3.27 0 0 1-5.658-3.171l1.81-3.094Z"/><path d="M14.53 44.65a3.022 3.022 0 0 1 4.144-.9c1.405.813 2.439 2.362 1.478 4.063l-1.774 3.101a3.27 3.27 0 0 1-5.658-3.171l1.81-3.094Z"/></g></svg>