<svg width="17" height="12" viewBox="0 0 17 12" fill="currentColor" xmlns="http://www.w3.org/2000/svg">
<path d="M4 7.5V5.25H6.25V3.75H4V1.5H2.5V3.75H0.25V5.25H2.5V7.5H4ZM10.75 6C11.575 6 12.2812 5.70625 12.8687 5.11875C13.4562 4.53125 13.75 3.825 13.75 3C13.75 2.175 13.4562 1.46875 12.8687 0.88125C12.2812 0.29375 11.575 0 10.75 0C9.925 0 9.21875 0.29375 8.63125 0.88125C8.04375 1.46875 7.75 2.175 7.75 3C7.75 3.825 8.04375 4.53125 8.63125 5.11875C9.21875 5.70625 9.925 6 10.75 6ZM16.75 12V9.9C16.75 9.475 16.6406 9.08438 16.4219 8.72813C16.2031 8.37188 15.9125 8.1 15.55 7.9125C14.775 7.525 13.9875 7.23438 13.1875 7.04063C12.3875 6.84688 11.575 6.75 10.75 6.75C9.925 6.75 9.1125 6.84688 8.3125 7.04063C7.5125 7.23438 6.725 7.525 5.95 7.9125C5.5875 8.1 5.29688 8.37188 5.07812 8.72813C4.85937 9.08438 4.75 9.475 4.75 9.9V12H16.75ZM15.25 10.5H6.25V9.9C6.25 9.7625 6.28437 9.6375 6.35312 9.525C6.42188 9.4125 6.5125 9.325 6.625 9.2625C7.3 8.925 7.98125 8.67188 8.66875 8.50313C9.35625 8.33438 10.05 8.25 10.75 8.25C11.45 8.25 12.1437 8.33438 12.8312 8.50313C13.5187 8.67188 14.2 8.925 14.875 9.2625C14.9875 9.325 15.0781 9.4125 15.1469 9.525C15.2156 9.6375 15.25 9.7625 15.25 9.9V10.5ZM10.75 4.5C10.3375 4.5 9.98437 4.35313 9.69062 4.05938C9.39687 3.76563 9.25 3.4125 9.25 3C9.25 2.5875 9.39687 2.23438 9.69062 1.94063C9.98437 1.64688 10.3375 1.5 10.75 1.5C11.1625 1.5 11.5156 1.64688 11.8094 1.94063C12.1031 2.23438 12.25 2.5875 12.25 3C12.25 3.4125 12.1031 3.76563 11.8094 4.05938C11.5156 4.35313 11.1625 4.5 10.75 4.5Z" fill="currentColor"/>
</svg>
