<?xml version="1.0" encoding="UTF-8"?>
<svg
	xmlns="http://www.w3.org/2000/svg"
	xmlns:xlink="http://www.w3.org/1999/xlink"
	width="0"
	height="0"
>
	<defs>
		<symbol viewBox="0 0 72 72" id="openmoji-wrench">
			<path
				fill="#D0CFCE"
				d="M41 64.905v-28.41l1.367-.523c4.079-1.561 7.001-5.246 7.633-9.623.601-4.269-.45-7.56-3-10.146 0 0-1.393-1.413-3.597-2.47-.653-.314-1.403.196-1.403.928v7.63l-2 3.044h-7l-2-3.044v-7.63c0-.732-.75-1.242-1.403-.928C27.393 14.79 26 16.203 26 16.203c-2.55 2.587-3.601 5.877-3 10.146l.015.107c.65 4.392 3.72 8.024 7.815 9.592l1.17.447v28.41"
			></path>
			<path
				fill="none"
				stroke="#000"
				stroke-linecap="round"
				stroke-linejoin="round"
				stroke-miterlimit="10"
				stroke-width="2"
				d="M41 63.906v-28l1.367-.515A11.995 11.995 0 0 0 50 25.906v0c.601-4.207-.45-7.45-3-10 0 0-1.393-1.392-3.597-2.435-.653-.308-1.403.194-1.403.916v7.52l-2 3h-7l-2-3v-7.52c0-.722-.75-1.224-1.403-.916C27.393 14.514 26 15.906 26 15.906c-2.55 2.55-3.601 5.793-3 10l.015.106c.65 4.328 3.72 7.908 7.815 9.453l1.17.441v28"
			></path>
		</symbol>
		<symbol viewBox="0 0 72 72" id="openmoji-world-map">
			<path fill="#92D3F5" d="M5 17h62v38H5z"></path>
			<path
				fill="#B1CC33"
				d="M28.5 30.5c-.042.583-1.667 2.586-2.083 2.875-.869.603-1.207.327-1.964.922-.48.377-1.078.78-1.812.922-.407.078-.227-.306-1.141.281-.51.327-.057.679 0 1 .077.432.134.172 1 1 .452.433.492.818 1 1 .317.114.548.051 1 0 .948-.108.526.827 1 1 1.09.399.997 1.832 2 2 .405.068.55-.144 1 0 .411.132.883.5 1 1 .154.657-.372 1.27-1 2-.508.591-.602.5-1 1-.531.668-.389.864-1 2-.618 1.15-.958 1.311-1 2-.017.288 0 .97 0 1 .018.695.056.787 0 1-.13.497-1.14.932-1.52.875-.75-.113-.737-2.703-.772-3.104-.07-.81.262-1.263.292-1.771.104-1.757.397-2.302 0-3-.253-.446-.387-.25-1-1-.346-.424-.87-1.082-1-2-.082-.579.089-.582 0-1-.165-.775-.808-1.026-2-2-.735-.601-1.387-1.134-2-2-.319-.45-.77-1.087-1-2-.304-1.202.149-1.399 0-3a7.064 7.064 0 0 0-1-3c-.348-.562-.594-.946-1-1-.774-.103-1.19 1.115-2 1-.484-.069-.858-.579-1-1-.038-.113-.176-.544 0-1 .098-.253.399-.502 1-1 .614-.508.922-.767 1-1 .146-.439-.117-.595 0-1 .2-.693 1.265-1.244 2-1 .422.14.331.408 1 1 .325.287 1.026.827 2 1 .492.088.738.131 1 0 .647-.324.338-1.18 1-2 .61-.753 1.6-.929 2-1 .99-.175 1.125.2 2 0 .94-.216.913-.68 2-1 .476-.14 1.315-.388 2 0 .617.349.535.888 1 1 .649.157.967-.855 2-1 .789-.11 1.727.321 2 1 .136.337.072.647 0 1-.218 1.065-.795 1.13-1 2-.222.946.254 1.175 0 2-.167.542-.5.375-1.031.813-.243.2-.302.52-.969 1.187-.333.333-.68.654-1 1-.73.788-.847.847-1 1M34.5 35.5c-.233-.296-1.228-1.826-1-2 .282-.215.78.208 1 0 .182-.172-.117-.504 0-1 .112-.478.556-.877 1-1 .528-.146.897.145 1 0 .198-.279-1.238-1.262-1-2 .147-.458.803-.402 1-1 .132-.402-.127-.54 0-1 .129-.465.537-.845 1-1 .132-.044.572-.192 1 0 .542.243.458.757 1 1 .305.137.695.137 1 0 .541-.242.483-.767 1-1 .343-.154.513.01 1 0 1.117-.024 1.94-.931 2-1 .503-.571.248-.8 1-2 .401-.641.665-.88 1-1 .095-.034.556-.199 1 0 .54.241.485.764 1 1 .267.122.44.055 1 0 .071-.007.714-.005 2 0 1.905.007 1.82.044 2 0 1.01-.247.991-.753 2-1 .698-.17.683.077 2 0 1.198-.07 1.775-.308 2 0 .086.117.021.178 0 1-.009.335.27.65.276 1.042.011.891.043.835-.005.958-.208.53-.362.659-.604 1.188-.09.197-.12.274-.084 1.02.053 1.097.356.848.417 1.792.048.738.125.886 0 1-.336.305-2.173-.264-2.583-1.125-.431-.905-.122-1.673-.417-1.875-.404-.278-2.233 1.126-2.5 2.016-.053.176-.284.452.578 1.234.872.79 1.249 1.084 1.328 1.156.485.438 1.008 1.028.594 1.594-.557.76-1.615.316-2 1-.345.613.386 1.185 0 2-.111.235-.407.49-1 1-.66.568-.904.65-1 1-.128.467.185.783 0 1-.237.279-.967.013-1 0-1.29-.484-1.342-1.97-2-2-.789-.036-1.221 2.078-2 2-.175-.018-.45-.345-1-1-.53-.63-.642-.862-1-1-.458-.177-.891-.037-1 0-.18.061-.503.222-1 1-.707 1.108-.438 1.395-1 2-.476.513-.858.509-1 1-.03.104-.02.403 0 1 .02.614.03.922 0 1-.208.531-.762.47-1 1-.163.363.026.551 0 1-.06 1.034-1.19 2.148-2 2-.322-.059-.548-.373-1-1-.4-.555-.828-1.15-1-2-.184-.915.154-1.01 0-2-.078-.502-.253-1.632-1-2-.716-.353-1.245.348-2 0-.702-.324-1.023-1.29-1-2 .025-.76.444-1.293 1-2 .436-.554.654-.831 1-1M54.5 44.5c-1.18.58-1.744.453-2 1-.199.424-.04.886 0 1 .243.704.925.972 1 1 .864.324 1.339-.354 2 0 .504.27.426.771 1 1 .316.126.597.076 1 0 .693-.131 1.583-.3 2-1 .3-.501.198-1.01 0-2-.153-.768-.355-1.778-1-2-.126-.043-.138-.012-1 0-.731.01-.806-.012-1 0-.765.046-.904.462-2 1z"
			></path>
			<g
				fill="none"
				stroke="#000"
				stroke-linecap="round"
				stroke-linejoin="round"
				stroke-miterlimit="10"
				stroke-width="2"
			>
				<path d="M5 17h62v38H5z"></path>
				<path
					d="M28.5 30.5c-.042.583-1.667 2.586-2.083 2.875-.869.603-1.207.327-1.964.922-.48.377-1.078.78-1.812.922-.407.078-.227-.306-1.141.281-.51.327-.057.679 0 1 .077.432.134.172 1 1 .452.433.492.818 1 1 .317.114.548.051 1 0 .948-.108.526.827 1 1 1.09.399.997 1.832 2 2 .405.068.55-.144 1 0 .411.132.883.5 1 1 .154.657-.372 1.27-1 2-.508.591-.602.5-1 1-.531.668-.389.864-1 2-.618 1.15-.958 1.311-1 2-.017.288 0 .97 0 1 .018.695.056.787 0 1-.13.497-1.14.932-1.52.875-.75-.113-.737-2.703-.772-3.104-.07-.81.262-1.263.292-1.771.104-1.757.397-2.302 0-3-.253-.446-.387-.25-1-1-.346-.424-.87-1.082-1-2-.082-.579.089-.582 0-1-.165-.775-.808-1.026-2-2-.735-.601-1.387-1.134-2-2-.319-.45-.77-1.087-1-2-.304-1.202.149-1.399 0-3a7.064 7.064 0 0 0-1-3c-.348-.562-.594-.946-1-1-.774-.103-1.19 1.115-2 1-.484-.069-.858-.579-1-1-.038-.113-.176-.544 0-1 .098-.253.399-.502 1-1 .614-.508.922-.767 1-1 .146-.439-.117-.595 0-1 .2-.693 1.265-1.244 2-1 .422.14.331.408 1 1 .325.287 1.026.827 2 1 .492.088.738.131 1 0 .647-.324.338-1.18 1-2 .61-.753 1.6-.929 2-1 .99-.175 1.125.2 2 0 .94-.216.913-.68 2-1 .476-.14 1.315-.388 2 0 .617.349.535.888 1 1 .649.157.967-.855 2-1 .789-.11 1.727.321 2 1 .136.337.072.647 0 1-.218 1.065-.795 1.13-1 2-.222.946.254 1.175 0 2-.167.542-.5.375-1.031.813-.243.2-.302.52-.969 1.187-.333.333-.68.654-1 1-.73.788-.847.847-1 1M34.5 35.5c-.233-.296-1.228-1.826-1-2 .282-.215.78.208 1 0 .182-.172-.117-.504 0-1 .112-.478.556-.877 1-1 .528-.146.897.145 1 0 .198-.279-1.238-1.262-1-2 .147-.458.803-.402 1-1 .132-.402-.127-.54 0-1 .129-.465.537-.845 1-1 .132-.044.572-.192 1 0 .542.243.458.757 1 1 .305.137.695.137 1 0 .541-.242.483-.767 1-1 .343-.154.513.01 1 0 1.117-.024 1.94-.931 2-1 .503-.571.248-.8 1-2 .401-.641.665-.88 1-1 .095-.034.556-.199 1 0 .54.241.485.764 1 1 .267.122.44.055 1 0 .071-.007.714-.005 2 0 1.905.007 1.82.044 2 0 1.01-.247.991-.753 2-1 .698-.17.683.077 2 0 1.198-.07 1.775-.308 2 0 .086.117.021.178 0 1-.009.335.27.65.276 1.042.011.891.043.835-.005.958-.208.53-.362.659-.604 1.188-.09.197-.12.274-.084 1.02.053 1.097.356.848.417 1.792.048.738.125.886 0 1-.336.305-2.173-.264-2.583-1.125-.431-.905-.122-1.673-.417-1.875-.404-.278-2.233 1.126-2.5 2.016-.053.176-.284.452.578 1.234.872.79 1.249 1.084 1.328 1.156.485.438 1.008 1.028.594 1.594-.557.76-1.615.316-2 1-.345.613.386 1.185 0 2-.111.235-.407.49-1 1-.66.568-.904.65-1 1-.128.467.185.783 0 1-.237.279-.967.013-1 0-1.29-.484-1.342-1.97-2-2-.789-.036-1.221 2.078-2 2-.175-.018-.45-.345-1-1-.53-.63-.642-.862-1-1-.458-.177-.891-.037-1 0-.18.061-.503.222-1 1-.707 1.108-.438 1.395-1 2-.476.513-.858.509-1 1-.03.104-.02.403 0 1 .02.614.03.922 0 1-.208.531-.762.47-1 1-.163.363.026.551 0 1-.06 1.034-1.19 2.148-2 2-.322-.059-.548-.373-1-1-.4-.555-.828-1.15-1-2-.184-.915.154-1.01 0-2-.078-.502-.253-1.632-1-2-.716-.353-1.245.348-2 0-.702-.324-1.023-1.29-1-2 .025-.76.444-1.293 1-2 .436-.554.654-.831 1-1M54.5 44.5c-1.18.58-1.744.453-2 1-.199.424-.04.886 0 1 .243.704.925.972 1 1 .864.324 1.339-.354 2 0 .504.27.426.771 1 1 .316.126.597.076 1 0 .693-.131 1.583-.3 2-1 .3-.501.198-1.01 0-2-.153-.768-.355-1.778-1-2-.126-.043-.138-.012-1 0-.731.01-.806-.012-1 0-.765.046-.904.462-2 1z"
				></path>
			</g>
		</symbol>
		<symbol viewBox="0 0 72 72" id="openmoji-red-circle">
			<circle cx="36" cy="36" r="28" fill="#d22f27"></circle>
			<circle
				cx="36"
				cy="36"
				r="28"
				fill="none"
				stroke="#000"
				stroke-linejoin="round"
				stroke-width="2"
			></circle>
		</symbol>
		<symbol viewBox="0 0 72 72" id="openmoji-raised-hand-medium-skin-tone">
			<path
				fill="#ba8f5e"
				d="M30.614 13.738a3.531 3.531 0 1 0-6.999-.095l-.257 18.998.022 4.325.176-12.999a3.531 3.531 0 1 0-7-.095l-.176 13 .053 10.084c.425 8.31 7.752 13.63 16.06 13.205a19.617 19.617 0 0 0 12.728-5.657c2.918-3.09 10.085-11.535 10.085-11.535 1.463-2.158.329-5.494-.8-4.673l-9.876 4.651-.039-5.4.039 5.4-.039-5.4.04-21.85a3.531 3.531 0 1 0-7-.095l-.094 7-.186 10.636.367-22.193a3.531 3.531 0 1 0-7-.094l-.206 24.016"
			></path>
			<path
				fill="none"
				stroke="#000"
				stroke-linecap="round"
				stroke-linejoin="round"
				stroke-width="2"
				d="M30.614 13.738a3.531 3.531 0 1 0-6.999-.095l-.257 18.998.005.951.193-9.625a3.531 3.531 0 1 0-7-.095l-.176 13 .053 10.084c.425 8.31 7.752 13.63 16.06 13.205a19.617 19.617 0 0 0 12.728-5.657c2.918-3.09 10.085-11.535 10.085-11.535 1.463-2.158.329-5.494-.8-4.673l-9.876 4.651-.039-5.4.039 5.4-.039-5.4.04-21.85a3.531 3.531 0 1 0-7-.095l-.094 7-.186 10.636.367-22.193a3.531 3.531 0 1 0-7-.094l-.175 20.454"
			></path>
		</symbol>
		<symbol viewBox="0 0 72 72" id="openmoji-raised-fist-medium-skin-tone">
			<g fill="#ba8f5e">
				<path
					d="M21.241 36.167a3.786 3.786 0 0 1-3.5-4v-7a3.531 3.531 0 1 1 7 0v7a3.786 3.786 0 0 1-3.5 4zM41.757 38.936a3.786 3.786 0 0 1-3.5-4v-15a3.531 3.531 0 1 1 7 0v15a3.786 3.786 0 0 1-3.5 4z"
				></path>
				<path
					d="M35.206 38.936a3.786 3.786 0 0 1-3.5-4v-15a3.531 3.531 0 1 1 7 0v15a3.786 3.786 0 0 1-3.5 4zM27.553 40.167a3.786 3.786 0 0 1-3.5-4v-15a3.531 3.531 0 1 1 7 0v15a3.786 3.786 0 0 1-3.5 4zM20.037 41.17a3.786 3.786 0 0 1-3.5-4v-15a3.531 3.531 0 1 1 7 0v15a3.786 3.786 0 0 1-3.5 4z"
				></path>
				<path
					d="M31.982 16.333c-.258-1.933 2.758-.184 6.218.457 2.333.431 4.58-3.02 4.838-1.087-.237.869 3.733-2.537 3.151 7.803M44.212 20.053l-.034.642"
				></path>
				<path
					d="M15.75 36.167c1.142 8.856 10.78 19.584 19.455 19.453 9.667 0 19.357-8.719 19.357-19.062l-.928-10.535c0-5.152-14.1-4.138-16.3-4.092L16 29.427"
				></path>
			</g>
			<g fill="none" stroke="#000" stroke-linecap="round" stroke-width="2">
				<path
					stroke-linejoin="round"
					d="M43.741 34.99v-2.334c0-1.1-1.789-2.2-3.976-2.44l-1.049-.118c-2.187-.242-3.976-1.85-3.976-3.774s1.8-3.334 4-3.334h10a4.164 4.164 0 0 1 4.235 3.826l.657 11.213M37.963 38.055c1.63-1.48 3.624-2.5 5.777-2.958"
				></path>
				<path
					stroke-miterlimit="10"
					d="M16.776 39.479c1.199 9.03 8.965 15.732 18.073 15.598 10.149 0 18.785-7.174 18.785-17.72"
				></path>
				<path
					stroke-linejoin="round"
					d="M16.776 39.479v-3.521M20.308 32.965a3.786 3.786 0 0 1-3.5-4v-7a3.531 3.531 0 1 1 7 0v7a3.786 3.786 0 0 1-3.5 4z"
				></path>
				<path
					stroke-linejoin="round"
					d="M28.744 31.827c-3.322 1.227-4.997-1.934-4.874-4v-7a3.531 3.531 0 1 1 7 0"
				></path>
				<path
					stroke-linejoin="round"
					d="M30.932 24.466v-5.318a3.531 3.531 0 1 1 7 0"
				></path>
				<path
					stroke-linejoin="round"
					d="M37.995 19.148a3.531 3.531 0 1 1 7 0"
				></path>
			</g>
		</symbol>
		<symbol viewBox="0 0 72 72" id="openmoji-locked-with-key">
			<path
				fill="#D0CFCE"
				stroke="#D0CFCE"
				stroke-linecap="round"
				stroke-linejoin="round"
				stroke-miterlimit="10"
				stroke-width="2"
				d="M14.196 35.652c-.2-7.666 5.579-16.384 12.452-16.6 6.93-.219 14.414 10.252 12.41 17.173h-3.183s.79-7.133-2.234-10.144c-.542-1.536-4.55-4.3-7.48-3.869-1.977.291-6.392 2.807-7.31 4.581-1.028 1.984-1.17 8.859-1.17 8.859h-3.485z"
			></path>
			<path
				fill="#FCEA2B"
				d="M41.698 36.361h1.63v23.372H10.283V36.361h1.63z"
			></path>
			<path fill="#F1B31C" d="M42.942 36.532 26.619 59.578h16.79z"></path>
			<path
				fill="#F4AA41"
				d="M55.94 32.583c3.583-1.818 6.069-5.786 6.069-10.389 0-6.321-4.69-11.446-10.473-11.446s-10.474 5.125-10.474 11.446c0 5.112 3.1 10.046 7.358 10.62"
			></path>
			<path
				fill="#F4AA41"
				stroke="#F4AA41"
				stroke-linecap="round"
				stroke-linejoin="round"
				stroke-miterlimit="10"
				stroke-width="2"
				d="m56.027 32.349-.011 3.077.156 20.725-4.502 4.501-3.66-4.66 2.883-2.883-3.157-3.157 2.641-3.641-3.14-3.141.014-2.976 2.709-2.71-1.241-1.241v-3.894"
			></path>
			<path
				fill="#E27022"
				d="m53.544 57.09 1.2-1.202-.219-19.827-1.214.013z"
			></path>
			<circle
				cx="51.535"
				cy="18.109"
				r="3.521"
				fill="#E27022"
				transform="rotate(-45.001 51.535 18.11)"
			></circle>
			<g
				fill="none"
				stroke="#000"
				stroke-linecap="round"
				stroke-linejoin="round"
				stroke-miterlimit="10"
				stroke-width="2"
			>
				<path
					d="M39.467 33.42c.581-8.034-5.889-14.587-12.82-14.369-6.872.217-12.45 7.083-12.45 14.37M41.698 36.321h1.63v23.371H10.283V36.321h1.63z"
				></path>
				<path
					d="M17.825 33.42c0-5.509 3.979-10.7 8.88-10.864 4.944-.165 9.559 4.79 9.144 10.864M56.025 36.026l.257 20.446-4.561 4.56-4.766-4.765 2.921-2.921-3.228-3.228 3.689-3.69-3.211-3.211v-3.03l2.745-2.745-1.269-1.269"
				></path>
				<circle
					cx="51.535"
					cy="18.109"
					r="3.521"
					transform="rotate(-45.001 51.535 18.11)"
				></circle>
				<path
					d="M56.017 31.636c3.57-1.769 6.027-5.59 5.993-10-.046-6.057-4.772-10.932-10.556-10.888-5.784.044-10.435 4.99-10.39 11.047.038 4.898 3.134 9.022 7.376 10.399"
				></path>
			</g>
		</symbol>
		<symbol viewBox="0 0 72 72" id="openmoji-handshake-medium-skin-tone">
			<path
				fill="#ba8f5e"
				d="M62.622 40.338c.96 3.25-1.109 5.983-4.435 5.392.443 3.249-2.735 6.13-6.579 4.283 1.478 3.766-1.997 5.908-4.731 4.283 1.403 1.699-.813 7.46-9.387 1.994l-1.643-.903L16.51 44.752l-1.459-.802s-7.133-5.822-8.537-8.259c-4.392-7.595.949-19.79 10.44-21.82l7.943-1.424 5.239 7.947 13.073 6.004L56 33.58l3.685 3.768Z"
			></path>
			<g fill="#ba8f5e">
				<path
					d="M62.622 40.338c6.721-4.585 5.041-19.03-.099-25.36-9.287-1.459-11-2.362-20.98-3.943l-13.53-.618a3.993 3.993 0 0 0-4.779 2.533 32.857 32.857 0 0 1-3.599 8.378 3.539 3.539 0 0 0 1.872 4.588c1.908.476 2.78-.386 4.46-1.686a25.954 25.954 0 0 0 3.805-4.575l13.64 6.204 12.72 7.164c2.514 1.697 5.012 5.843 6.51 7.32M31.51 54.15a3.022 3.022 0 0 1 4.144-.9c1.405.813 2.439 2.362 1.478 4.063l-1.774 3.101a3.27 3.27 0 0 1-5.658-3.172l1.81-3.094ZM25.84 50.98a3.022 3.022 0 0 1 4.144-.9c1.405.813 2.439 2.362 1.478 4.063l-1.774 3.101a3.27 3.27 0 0 1-5.658-3.171l1.81-3.094Z"
				></path>
				<path
					d="M20.18 47.82a3.022 3.022 0 0 1 4.144-.9c1.405.813 2.439 2.362 1.478 4.063l-1.774 3.101a3.27 3.27 0 0 1-5.658-3.171l1.81-3.094Z"
				></path>
				<path
					d="M14.53 44.65a3.022 3.022 0 0 1 4.144-.9c1.405.813 2.439 2.362 1.478 4.063l-1.774 3.101a3.27 3.27 0 0 1-5.658-3.171l1.81-3.094Z"
				></path>
			</g>
			<g
				fill="none"
				stroke="#000"
				stroke-linecap="round"
				stroke-linejoin="round"
				stroke-width="2"
			>
				<path
					d="M15.05 43.95s-7.133-5.822-8.537-8.259c-4.392-7.595.949-19.79 10.44-21.82M38.71 42.99l12.89 7.021M33.87 47.79l13 6.498M58.18 45.72l-5.1-4.358-8.279-4.335M29.772 19.654l13.64 6.204 12.72 7.164c2.514 1.698 5.012 5.844 6.51 7.321"
				></path>
				<path
					d="M37.49 56.29c8.574 5.466 10.79-.295 9.387-1.994 2.734 1.625 6.209-.517 4.731-4.283 3.844 1.847 7.022-1.034 6.579-4.283 3.326.591 5.395-2.142 4.435-5.392 6.721-4.585 5.041-19.03-.099-25.36-9.287-1.459-11-2.362-20.98-3.943l-13.53-.619a3.993 3.993 0 0 0-4.779 2.533 32.857 32.857 0 0 1-3.599 8.378 3.539 3.539 0 0 0 1.872 4.588c1.908.477 2.78-.386 4.46-1.686a25.954 25.954 0 0 0 3.805-4.575"
				></path>
				<path
					d="M31.51 54.15a3.022 3.022 0 0 1 4.144-.9c1.405.813 2.439 2.362 1.478 4.063l-1.774 3.101a3.27 3.27 0 0 1-5.658-3.172l1.81-3.094ZM25.84 50.98a3.022 3.022 0 0 1 4.144-.9c1.405.813 2.439 2.362 1.478 4.063l-1.774 3.101a3.27 3.27 0 0 1-5.658-3.171l1.81-3.094Z"
				></path>
				<path
					d="M20.18 47.82a3.022 3.022 0 0 1 4.144-.9c1.405.813 2.439 2.362 1.478 4.063l-1.774 3.101a3.27 3.27 0 0 1-5.658-3.171l1.81-3.094Z"
				></path>
				<path
					d="M14.53 44.65a3.022 3.022 0 0 1 4.144-.9c1.405.813 2.439 2.362 1.478 4.063l-1.774 3.101a3.27 3.27 0 0 1-5.658-3.171l1.81-3.094Z"
				></path>
			</g>
		</symbol>
		<symbol viewBox="0 0 72 72" id="openmoji-bust-in-silhouette">
			<g fill="#D0CFCE">
				<path
					d="M58 61s0-3-1-7c-1.21-4.846-4-8-10-8H25c-6 0-8.79 3.154-10 8-1 4-1 7-1 7h44zM26 26c0 3.725.54 7.809 2 10 1.861 2.793 5.018 4 8 4 3.096 0 6.137-1.207 8-4 1.46-2.191 2-6.275 2-10 0-2.793-1-12-10-12s-10 7.344-10 12z"
				></path>
			</g>
			<g fill="none" stroke="#000" stroke-linejoin="round" stroke-width="2">
				<path
					stroke-linecap="round"
					d="M58 60s0-2-1-6c-1.21-4.846-4-8-10-8H25c-6 0-8.79 3.154-10 8-1 4-1 6-1 6"
				></path>
				<path
					d="M26 26c0 3.725.54 7.809 2 10 1.861 2.793 5.018 4 8 4 3.096 0 6.137-1.207 8-4 1.46-2.191 2-6.275 2-10 0-2.793-1-12-10-12s-10 7.344-10 12z"
				></path>
			</g>
		</symbol>
		<symbol viewBox="0 0 72 72" id="openmoji-bar-chart">
			<path fill="#fff" d="M12.05 12.05h47.9v47.9h-47.9z"></path>
			<path fill="#b1cc33" d="M18.32 37.6h8v21.41h-8z"></path>
			<path fill="#92d3f5" d="M46.25 44.38h8V59h-8z"></path>
			<path fill="#d22f27" d="M32.28 21.69h8v37.32h-8z"></path>
			<g
				fill="none"
				stroke="#000"
				stroke-linecap="round"
				stroke-linejoin="round"
				stroke-miterlimit="10"
				stroke-width="2"
			>
				<path
					d="M18.03 59.01V37.6h8v21.41M45.97 59.01V44.39h8v14.62M12.75 31.28h15.74M43.51 40.82h15.94M57.48 50.37h1.69"
				></path>
				<path d="M12.05 12.05h47.9v47.9h-47.9z"></path>
				<path
					d="M32 59.01V21.73h8v37.28M12.39 40.82h2.13M12.39 50.37h2.13M43.51 31.28h15.94M43.51 21.74h15.94M12.75 21.74h15.74"
				></path>
			</g>
		</symbol>
		<symbol viewBox="0 0 60 52" fill="none" id="noun-project-notebook">
			<path
				d="M60 14.55V9.56058C60 8.63234 59.8172 7.7132 59.462 6.85562C59.1068 5.99805 58.5861 5.21883 57.9297 4.56247C57.2734 3.90611 56.4942 3.38546 55.6366 3.03024C54.779 2.67502 53.8599 2.49219 52.9317 2.49219C52.0034 2.49219 51.0843 2.67502 50.2267 3.03024C49.3691 3.38546 48.5899 3.90611 47.9336 4.56247C47.2772 5.21883 46.7565 5.99805 46.4013 6.85562C46.0461 7.7132 45.8633 8.63234 45.8633 9.56058V42.3246C45.8676 43.4147 46.258 44.4679 46.9651 45.2975L51.7051 50.8275C51.9012 51.0545 52.1437 51.2369 52.4163 51.3624C52.6888 51.4879 52.985 51.5536 53.2851 51.5551H53.3474C53.6596 51.5456 53.9656 51.466 54.2427 51.322C54.5199 51.178 54.761 50.9735 54.9482 50.7236L59.0853 45.152C59.6814 44.3615 60.0026 43.3978 60 42.4078V14.55ZM50.0211 9.56058C50.0211 8.78866 50.3278 8.04836 50.8736 7.50253C51.4194 6.95671 52.1597 6.65006 52.9317 6.65006C53.7036 6.65006 54.4439 6.95671 54.9897 7.50253C55.5355 8.04836 55.8422 8.78866 55.8422 9.56058V12.4711H50.0211V9.56058Z"
				fill="currentColor"
			></path>
			<path
				d="M6.2368 51.5577H32.8472C34.4997 51.5527 36.0832 50.8941 37.2518 49.7255C38.4203 48.5569 39.079 46.9734 39.084 45.3208V8.73154C39.079 7.07895 38.4203 5.49546 37.2518 4.3269C36.0832 3.15834 34.4997 2.49966 32.8472 2.49473H30.3524V2.07894C30.3524 1.52757 30.1334 0.998784 29.7435 0.608907C29.3536 0.219031 28.8249 0 28.2735 0C27.7221 0 27.1933 0.219031 26.8035 0.608907C26.4136 0.998784 26.1946 1.52757 26.1946 2.07894V2.49473H21.6209V2.07894C21.6209 1.52757 21.4019 0.998784 21.012 0.608907C20.6221 0.219031 20.0933 0 19.542 0C18.9906 0 18.4618 0.219031 18.072 0.608907C17.6821 0.998784 17.463 1.52757 17.463 2.07894V2.49473H12.8894V2.07894C12.8894 1.52757 12.6704 0.998784 12.2805 0.608907C11.8906 0.219031 11.3618 0 10.8105 0C10.2591 0 9.7303 0.219031 9.34043 0.608907C8.95055 0.998784 8.73152 1.52757 8.73152 2.07894V2.49473H6.2368C4.58422 2.49966 3.00073 3.15834 1.83217 4.3269C0.66361 5.49546 0.00493558 7.07895 0 8.73154V45.3208C0.00493558 46.9734 0.66361 48.5569 1.83217 49.7255C3.00073 50.8941 4.58422 51.5527 6.2368 51.5577ZM10.8105 37.4209H28.2735C28.8249 37.4209 29.3536 37.6399 29.7435 38.0298C30.1334 38.4197 30.3524 38.9485 30.3524 39.4998C30.3524 40.0512 30.1334 40.58 29.7435 40.9699C29.3536 41.3597 28.8249 41.5788 28.2735 41.5788H10.8105C10.2591 41.5788 9.7303 41.3597 9.34043 40.9699C8.95055 40.58 8.73152 40.0512 8.73152 39.4998C8.73152 38.9485 8.95055 38.4197 9.34043 38.0298C9.7303 37.6399 10.2591 37.4209 10.8105 37.4209ZM8.73152 32.0156C8.73152 31.4643 8.95055 30.9355 9.34043 30.5456C9.7303 30.1557 10.2591 29.9367 10.8105 29.9367H28.2735C28.8249 29.9367 29.3536 30.1557 29.7435 30.5456C30.1334 30.9355 30.3524 31.4643 30.3524 32.0156C30.3524 32.567 30.1334 33.0958 29.7435 33.4857C29.3536 33.8756 28.8249 34.0946 28.2735 34.0946H10.8105C10.2591 34.0946 9.7303 33.8756 9.34043 33.4857C8.95055 33.0958 8.73152 32.567 8.73152 32.0156ZM28.2735 26.6104H10.8105C10.2591 26.6104 9.7303 26.3914 9.34043 26.0015C8.95055 25.6116 8.73152 25.0828 8.73152 24.5315C8.73152 23.9801 8.95055 23.4513 9.34043 23.0614C9.7303 22.6716 10.2591 22.4525 10.8105 22.4525H28.2735C28.8249 22.4525 29.3536 22.6716 29.7435 23.0614C30.1334 23.4513 30.3524 23.9801 30.3524 24.5315C30.3524 25.0828 30.1334 25.6116 29.7435 26.0015C29.3536 26.3914 28.8249 26.6104 28.2735 26.6104ZM4.15787 8.73154C4.15787 8.18017 4.3769 7.65138 4.76677 7.26151C5.15665 6.87163 5.68543 6.6526 6.2368 6.6526H8.73152V8.31575C8.73152 8.86712 8.95055 9.39591 9.34043 9.78578C9.7303 10.1757 10.2591 10.3947 10.8105 10.3947C11.3618 10.3947 11.8906 10.1757 12.2805 9.78578C12.6704 9.39591 12.8894 8.86712 12.8894 8.31575V6.6526H17.463V8.31575C17.463 8.86712 17.6821 9.39591 18.072 9.78578C18.4618 10.1757 18.9906 10.3947 19.542 10.3947C20.0933 10.3947 20.6221 10.1757 21.012 9.78578C21.4019 9.39591 21.6209 8.86712 21.6209 8.31575V6.6526H26.1946V8.31575C26.1946 8.86712 26.4136 9.39591 26.8035 9.78578C27.1933 10.1757 27.7221 10.3947 28.2735 10.3947C28.8249 10.3947 29.3536 10.1757 29.7435 9.78578C30.1334 9.39591 30.3524 8.86712 30.3524 8.31575V6.6526H32.8472C33.3985 6.6526 33.9273 6.87163 34.3172 7.26151C34.7071 7.65138 34.9261 8.18017 34.9261 8.73154V13.721H4.15787V8.73154Z"
				fill="currentColor"
			></path>
		</symbol>
		<symbol viewBox="0 0 24 24" id="material-wifi">
			<path fill="none" d="M0 0h24v24H0V0zm0 0h24v24H0V0z"></path>
			<path
				d="m1 9 2 2c4.97-4.97 13.03-4.97 18 0l2-2C16.93 2.93 7.08 2.93 1 9zm8 8 3 3 3-3a4.237 4.237 0 0 0-6 0zm-4-4 2 2a7.074 7.074 0 0 1 10 0l2-2C15.14 9.14 8.87 9.14 5 13z"
			></path>
		</symbol>
		<symbol viewBox="0 0 24 24" id="material-wifi-off">
			<path fill="none" d="M0 0h24v24H0V0z"></path>
			<path
				d="m21 11 2-2c-3.73-3.73-8.87-5.15-13.7-4.31l2.58 2.58c3.3-.02 6.61 1.22 9.12 3.73zm-2 2a9.895 9.895 0 0 0-3.72-2.33l3.02 3.02.7-.69zM9 17l3 3 3-3a4.237 4.237 0 0 0-6 0zM3.41 1.64 2 3.05 5.05 6.1C3.59 6.83 2.22 7.79 1 9l2 2c1.23-1.23 2.65-2.16 4.17-2.78l2.24 2.24A9.823 9.823 0 0 0 5 13l2 2a6.999 6.999 0 0 1 4.89-2.06l7.08 7.08 1.41-1.41L3.41 1.64z"
			></path>
		</symbol>
		<symbol viewBox="0 0 24 24" id="material-warning-rounded">
			<path
				d="M4.47 21h15.06c1.54 0 2.5-1.67 1.73-3L13.73 4.99c-.77-1.33-2.69-1.33-3.46 0L2.74 18c-.77 1.33.19 3 1.73 3zM12 14c-.55 0-1-.45-1-1v-2c0-.55.45-1 1-1s1 .45 1 1v2c0 .55-.45 1-1 1zm1 4h-2v-2h2v2z"
			></path>
		</symbol>
		<symbol viewBox="0 0 24 24" id="material-volume-up">
			<path fill="none" d="M0 0h24v24H0V0z"></path>
			<path
				d="M3 9v6h4l5 5V4L7 9H3zm7-.17v6.34L7.83 13H5v-2h2.83L10 8.83zM16.5 12A4.5 4.5 0 0 0 14 7.97v8.05c1.48-.73 2.5-2.25 2.5-4.02zM14 3.23v2.06c2.89.86 5 3.54 5 6.71s-2.11 5.85-5 6.71v2.06c4.01-.91 7-4.49 7-8.77 0-4.28-2.99-7.86-7-8.77z"
			></path>
		</symbol>
		<symbol viewBox="0 0 24 24" id="material-tablet-android">
			<path fill="none" d="M0 0h24v24H0V0zm0 0h24v24H0V0z"></path>
			<path
				d="M18 0H6C4.34 0 3 1.34 3 3v18c0 1.66 1.34 3 3 3h12c1.66 0 3-1.34 3-3V3c0-1.66-1.34-3-3-3zm-4 22h-4v-1h4v1zm5.25-3H4.75V3h14.5v16z"
			></path>
		</symbol>
		<symbol viewBox="0 -960 960 960" id="material-symbols-new-window">
			<path
				d="M200-120q-33 0-56.5-23.5T120-200v-560q0-33 23.5-56.5T200-840h240v80H200v560h560v-240h80v240q0 33-23.5 56.5T760-120H200Zm440-400v-120H520v-80h120v-120h80v120h120v80H720v120h-80Z"
			></path>
		</symbol>
		<symbol viewBox="0 -960 960 960" id="material-symbols-info">
			<path
				d="M440-280h80v-240h-80v240Zm40-320q17 0 28.5-11.5T520-640q0-17-11.5-28.5T480-680q-17 0-28.5 11.5T440-640q0 17 11.5 28.5T480-600Zm0 520q-83 0-156-31.5T197-197q-54-54-85.5-127T80-480q0-83 31.5-156T197-763q54-54 127-85.5T480-880q83 0 156 31.5T763-763q54 54 85.5 127T880-480q0 83-31.5 156T763-197q-54 54-127 85.5T480-80Zm0-80q134 0 227-93t93-227q0-134-93-227t-227-93q-134 0-227 93t-93 227q0 134 93 227t227 93Zm0-320Z"
			></path>
		</symbol>
		<symbol viewBox="0 -960 960 960" id="material-symbols-encrypted-weight400">
			<path
				d="M420-360h120l-23-129q20-10 31.5-29t11.5-42q0-33-23.5-56.5T480-640q-33 0-56.5 23.5T400-560q0 23 11.5 42t31.5 29l-23 129Zm60 280q-139-35-229.5-159.5T160-516v-244l320-120 320 120v244q0 152-90.5 276.5T480-80Zm0-84q104-33 172-132t68-220v-189l-240-90-240 90v189q0 121 68 220t172 132Zm0-316Z"
			></path>
		</symbol>
		<symbol viewBox="0 -960 960 960" id="material-symbols-encrypted-weight200">
			<path
				d="M429.62-370h100.76l-22.61-126.31q18.84-8.08 30.34-25.34 11.5-17.27 11.5-38.35 0-28.77-20.42-49.19-20.42-20.42-49.19-20.42-28.77 0-49.19 20.42-20.42 20.42-20.42 49.19 0 21.08 11.5 38.35 11.5 17.26 30.34 25.34L429.62-370ZM480-100.77q-129.77-35.39-214.88-152.77Q180-370.92 180-516v-230.15l300-112.31 300 112.31V-516q0 145.08-85.12 262.46Q609.77-136.16 480-100.77Zm0-63.23q104-33 172-132t68-220v-189l-240-89.62L240-705v189q0 121 68 220t172 132Zm0-315.62Z"
			></path>
		</symbol>
		<symbol
			fill="currentColor"
			viewBox="0 -960 960 960"
			id="material-symbols-delete"
		>
			<path
				d="M280-120q-33 0-56.5-23.5T200-200v-520h-40v-80h200v-40h240v40h200v80h-40v520q0 33-23.5 56.5T680-120zm400-600H280v520h400zM360-280h80v-360h-80zm160 0h80v-360h-80zM280-720v520z"
			></path>
		</symbol>
		<symbol viewBox="0 -960 960 960" id="material-symbols-computer">
			<path
				d="M40-120v-80h880v80H40Zm120-120q-33 0-56.5-23.5T80-320v-440q0-33 23.5-56.5T160-840h640q33 0 56.5 23.5T880-760v440q0 33-23.5 56.5T800-240H160Zm0-80h640v-440H160v440Zm0 0v-440 440Z"
			></path>
		</symbol>
		<symbol
			fill="currentColor"
			viewBox="0 -960 960 960"
			id="material-symbols-apps"
		>
			<path
				d="M240-160q-33 0-56.5-23.5T160-240t23.5-56.5T240-320t56.5 23.5T320-240t-23.5 56.5T240-160m240 0q-33 0-56.5-23.5T400-240t23.5-56.5T480-320t56.5 23.5T560-240t-23.5 56.5T480-160m240 0q-33 0-56.5-23.5T640-240t23.5-56.5T720-320t56.5 23.5T800-240t-23.5 56.5T720-160M240-400q-33 0-56.5-23.5T160-480t23.5-56.5T240-560t56.5 23.5T320-480t-23.5 56.5T240-400m240 0q-33 0-56.5-23.5T400-480t23.5-56.5T480-560t56.5 23.5T560-480t-23.5 56.5T480-400m240 0q-33 0-56.5-23.5T640-480t23.5-56.5T720-560t56.5 23.5T800-480t-23.5 56.5T720-400M240-640q-33 0-56.5-23.5T160-720t23.5-56.5T240-800t56.5 23.5T320-720t-23.5 56.5T240-640m240 0q-33 0-56.5-23.5T400-720t23.5-56.5T480-800t56.5 23.5T560-720t-23.5 56.5T480-640m240 0q-33 0-56.5-23.5T640-720t23.5-56.5T720-800t56.5 23.5T800-720t-23.5 56.5T720-640"
			></path>
		</symbol>
		<symbol viewBox="0 0 24 24" id="material-square-filled">
			<path fill="none" d="M0 0h24v24H0z"></path>
			<path d="M3 3h18v18H3z"></path>
		</symbol>
		<symbol id="material-settings">
			<path fill="none" d="M0 0h24v24H0V0z"></path>
			<path
				d="M19.43 12.98c.04-.32.07-.64.07-.98 0-.34-.03-.66-.07-.98l2.11-1.65c.19-.15.24-.42.12-.64l-2-3.46a.5.5 0 0 0-.61-.22l-2.49 1c-.52-.4-1.08-.73-1.69-.98l-.38-2.65A.488.488 0 0 0 14 2h-4c-.25 0-.46.18-.49.42l-.38 2.65c-.61.25-1.17.59-1.69.98l-2.49-1a.566.566 0 0 0-.18-.03c-.17 0-.34.09-.43.25l-2 3.46c-.13.22-.07.49.12.64l2.11 1.65c-.04.32-.07.65-.07.98 0 .33.03.66.07.98l-2.11 1.65c-.19.15-.24.42-.12.64l2 3.46a.5.5 0 0 0 .61.22l2.49-1c.52.4 1.08.73 1.69.98l.38 2.65c.03.24.24.42.49.42h4c.25 0 .46-.18.49-.42l.38-2.65c.61-.25 1.17-.59 1.69-.98l2.49 1c.06.02.12.03.18.03.17 0 .34-.09.43-.25l2-3.46c.12-.22.07-.49-.12-.64l-2.11-1.65zm-1.98-1.71c.04.31.05.52.05.73 0 .21-.02.43-.05.73l-.14 1.13.89.7 1.08.84-.7 1.21-1.27-.51-1.04-.42-.9.68c-.43.32-.84.56-1.25.73l-1.06.43-.16 1.13-.2 1.35h-1.4l-.19-1.35-.16-1.13-1.06-.43c-.43-.18-.83-.41-1.23-.71l-.91-.7-1.06.43-1.27.51-.7-1.21 1.08-.84.89-.7-.14-1.13c-.03-.31-.05-.54-.05-.74s.02-.43.05-.73l.14-1.13-.89-.7-1.08-.84.7-1.21 1.27.51 1.04.42.9-.68c.43-.32.84-.56 1.25-.73l1.06-.43.16-1.13.2-1.35h1.39l.19 1.35.16 1.13 1.06.43c.43.18.83.41 1.23.71l.91.7 1.06-.43 1.27-.51.7 1.21-1.07.85-.89.7.14 1.13zM12 8c-2.21 0-4 1.79-4 4s1.79 4 4 4 4-1.79 4-4-1.79-4-4-4zm0 6c-1.1 0-2-.9-2-2s.9-2 2-2 2 .9 2 2-.9 2-2 2z"
			></path>
		</symbol>
		<symbol viewBox="0 0 24 24" id="material-send-filled">
			<path fill="none" d="M0 0h24v24H0z"></path>
			<path d="M2.01 21 23 12 2.01 3 2 10l15 2-15 2z"></path>
		</symbol>
		<symbol viewBox="0 0 24 24" id="material-question-mark">
			<path fill="none" d="M0 0h24v24H0z"></path>
			<path
				d="M11.07 12.85c.77-1.39 2.25-2.21 3.11-3.44.91-1.29.4-3.7-2.18-3.7-1.69 0-2.52 1.28-2.87 2.34L6.54 6.96C7.25 4.83 9.18 3 11.99 3c2.35 0 3.96 1.07 4.78 2.41.7 1.15 1.11 3.3.03 4.9-1.2 1.77-2.35 2.31-2.97 3.45-.25.46-.35.76-.35 2.24h-2.89c-.01-.78-.13-2.05.48-3.15zM14 20c0 1.1-.9 2-2 2s-2-.9-2-2 .9-2 2-2 2 .9 2 2z"
			></path>
		</symbol>
		<symbol viewBox="0 0 24 24" id="material-play-arrow-filled">
			<path fill="none" d="M0 0h24v24H0z"></path>
			<path d="M8 5v14l11-7z"></path>
		</symbol>
		<symbol viewBox="0 0 24 24" id="material-place">
			<path fill="none" d="M0 0h24v24H0z"></path>
			<path
				d="M12 12c-1.1 0-2-.9-2-2s.9-2 2-2 2 .9 2 2-.9 2-2 2zm6-1.8C18 6.57 15.35 4 12 4s-6 2.57-6 6.2c0 2.34 1.95 5.44 6 9.14 4.05-3.7 6-6.8 6-9.14zM12 2c4.2 0 8 3.22 8 8.2 0 3.32-2.67 7.25-8 11.8-5.33-4.55-8-8.48-8-11.8C4 5.22 7.8 2 12 2z"
			></path>
		</symbol>
		<symbol viewBox="0 0 24 24" id="material-phone-android">
			<path fill="none" d="M0 0h24v24H0V0z"></path>
			<path
				d="M16 1H8C6.34 1 5 2.34 5 4v16c0 1.66 1.34 3 3 3h8c1.66 0 3-1.34 3-3V4c0-1.66-1.34-3-3-3zm1 17H7V4h10v14zm-3 3h-4v-1h4v1z"
			></path>
		</symbol>
		<symbol viewBox="0 0 24 24" id="material-person-add">
			<path d="M0 0h24v24H0z" fill="none"></path>
			<path
				d="M15 12c2.21 0 4-1.79 4-4s-1.79-4-4-4-4 1.79-4 4 1.79 4 4 4zm-9-2V7H4v3H1v2h3v3h2v-3h3v-2H6zm9 4c-2.67 0-8 1.34-8 4v2h16v-2c0-2.66-5.33-4-8-4z"
			></path>
		</symbol>
		<symbol viewBox="0 0 24 24" id="material-people-filled">
			<path fill="none" d="M0 0h24v24H0z"></path>
			<path
				d="M16 11c1.66 0 2.99-1.34 2.99-3S17.66 5 16 5c-1.66 0-3 1.34-3 3s1.34 3 3 3zm-8 0c1.66 0 2.99-1.34 2.99-3S9.66 5 8 5C6.34 5 5 6.34 5 8s1.34 3 3 3zm0 2c-2.33 0-7 1.17-7 3.5V19h14v-2.5c0-2.33-4.67-3.5-7-3.5zm8 0c-.29 0-.62.02-.97.05 1.16.84 1.97 1.97 1.97 3.45V19h6v-2.5c0-2.33-4.67-3.5-7-3.5z"
			></path>
		</symbol>
		<symbol
			viewBox="0 0 24 24"
			fill="currentColor"
			id="material-offline-bolt-filled"
		>
			<path fill="none" d="M0 0h24v24H0z"></path>
			<path
				d="M12 2.02c-5.51 0-9.98 4.47-9.98 9.98s4.47 9.98 9.98 9.98 9.98-4.47 9.98-9.98S17.51 2.02 12 2.02M11.48 20v-6.26H8L13 4v6.26h3.35z"
			></path>
		</symbol>
		<symbol fill="currentColor" viewBox="0 0 24 24" id="material-map-filled">
			<path fill="none" d="M0 0h24v24H0z"></path>
			<path
				d="m20.5 3-.16.03L15 5.1 9 3 3.36 4.9c-.21.07-.36.25-.36.48V20.5c0 .28.22.5.5.5l.16-.03L9 18.9l6 2.1 5.64-1.9c.21-.07.36-.25.36-.48V3.5c0-.28-.22-.5-.5-.5M15 19l-6-2.11V5l6 2.11z"
			></path>
		</symbol>
		<symbol viewBox="0 0 24 24" id="material-manage-accounts-filled">
			<path fill="none" d="M0 0h24v24H0V0z"></path>
			<circle cx="10" cy="8" r="4"></circle>
			<path
				d="M10.67 13.02c-.22-.01-.44-.02-.67-.02-2.42 0-4.68.67-6.61 1.82-.88.52-1.39 1.5-1.39 2.53V20h9.26a6.963 6.963 0 0 1-.59-6.98zM20.75 16c0-.22-.03-.42-.06-.63l1.14-1.01-1-1.73-1.45.49c-.32-.27-.68-.48-1.08-.63L18 11h-2l-.3 1.49c-.4.15-.76.36-1.08.63l-1.45-.49-1 1.73 1.14 1.01c-.03.21-.06.41-.06.63s.03.42.06.63l-1.14 1.01 1 1.73 1.45-.49c.32.27.68.48 1.08.63L16 21h2l.3-1.49c.4-.15.76-.36 1.08-.63l1.45.49 1-1.73-1.14-1.01c.03-.21.06-.41.06-.63zM17 18c-1.1 0-2-.9-2-2s.9-2 2-2 2 .9 2 2-.9 2-2 2z"
			></path>
		</symbol>
		<symbol viewBox="0 0 24 24" id="material-logout">
			<path fill="none" d="M0 0h24v24H0V0z"></path>
			<path
				d="m17 8-1.41 1.41L17.17 11H9v2h8.17l-1.58 1.58L17 16l4-4-4-4zM5 5h7V3H5c-1.1 0-2 .9-2 2v14c0 1.1.9 2 2 2h7v-2H5V5z"
			></path>
		</symbol>
		<symbol
			fill="currentColor"
			viewBox="0 0 24 24"
			id="material-layers-outlined"
		>
			<path fill="none" d="M0 0h24v24H0z"></path>
			<path
				d="m11.99 18.54-7.37-5.73L3 14.07l9 7 9-7-1.63-1.27zM12 16l7.36-5.73L21 9l-9-7-9 7 1.63 1.27zm0-11.47L17.74 9 12 13.47 6.26 9z"
			></path>
		</symbol>
		<symbol viewBox="0 0 24 24" id="material-language">
			<path fill="none" d="M0 0h24v24H0V0z"></path>
			<path
				d="M11.99 2C6.47 2 2 6.48 2 12s4.47 10 9.99 10C17.52 22 22 17.52 22 12S17.52 2 11.99 2zm6.93 6h-2.95a15.65 15.65 0 0 0-1.38-3.56A8.03 8.03 0 0 1 18.92 8zM12 4.04c.83 1.2 1.48 2.53 1.91 3.96h-3.82c.43-1.43 1.08-2.76 1.91-3.96zM4.26 14C4.1 13.36 4 12.69 4 12s.1-1.36.26-2h3.38c-.08.66-.14 1.32-.14 2s.06 1.34.14 2H4.26zm.82 2h2.95c.32 1.25.78 2.45 1.38 3.56A7.987 7.987 0 0 1 5.08 16zm2.95-8H5.08a7.987 7.987 0 0 1 4.33-3.56A15.65 15.65 0 0 0 8.03 8zM12 19.96c-.83-1.2-1.48-2.53-1.91-3.96h3.82c-.43 1.43-1.08 2.76-1.91 3.96zM14.34 14H9.66c-.09-.66-.16-1.32-.16-2s.07-1.35.16-2h4.68c.09.65.16 1.32.16 2s-.07 1.34-.16 2zm.25 5.56c.6-1.11 1.06-2.31 1.38-3.56h2.95a8.03 8.03 0 0 1-4.33 3.56zM16.36 14c.08-.66.14-1.32.14-2s-.06-1.34-.14-2h3.38c.16.64.26 1.31.26 2s-.1 1.36-.26 2h-3.38z"
			></path>
		</symbol>
		<symbol
			enable-background="new 0 0 24 24"
			viewBox="0 0 24 24"
			id="material-hiking"
		>
			<rect fill="none" height="24" width="24"></rect>
			<path
				d="M13.5,5.5c1.1,0,2-0.9,2-2s-0.9-2-2-2s-2,0.9-2,2S12.4,5.5,13.5,5.5z M17.5,10.78c-1.23-0.37-2.22-1.17-2.8-2.18l-1-1.6 c-0.41-0.65-1.11-1-1.84-1c-0.78,0-1.59,0.5-1.78,1.44S7,23,7,23h2.1l1.8-8l2.1,2v6h2v-7.5l-2.1-2l0.6-3c1,1.15,2.41,2.01,4,2.34V23 H19V9h-1.5L17.5,10.78z M7.43,13.13l-2.12-0.41c-0.54-0.11-0.9-0.63-0.79-1.17l0.76-3.93c0.21-1.08,1.26-1.79,2.34-1.58l1.16,0.23 L7.43,13.13z"
			></path>
		</symbol>
		<symbol viewBox="0 0 24 24" id="material-fmd-good-filled">
			<path fill="none" d="M0 0h24v24H0V0z"></path>
			<path
				d="M12 2c-4.2 0-8 3.22-8 8.2 0 3.32 2.67 7.25 8 11.8 5.33-4.55 8-8.48 8-11.8C20 5.22 16.2 2 12 2zm0 10c-1.1 0-2-.9-2-2s.9-2 2-2 2 .9 2 2-.9 2-2 2z"
			></path>
		</symbol>
		<symbol viewBox="0 0 24 24" id="material-fit-screen">
			<path fill="none" d="M0 0h24v24H0V0z"></path>
			<path
				d="M6 16h12V8H6v8zm2-6h8v4H8v-4zm-4 5H2v3c0 1.1.9 2 2 2h3v-2H4v-3zm0-9h3V4H4c-1.1 0-2 .9-2 2v3h2V6zm16-2h-3v2h3v3h2V6c0-1.1-.9-2-2-2zm0 14h-3v2h3c1.1 0 2-.9 2-2v-3h-2v3z"
			></path>
		</symbol>
		<symbol viewBox="0 0 24 24" id="material-file-download">
			<path fill="none" d="M0 0h24v24H0z"></path>
			<path
				d="M18 15v3H6v-3H4v3c0 1.1.9 2 2 2h12c1.1 0 2-.9 2-2v-3h-2zm-1-4-1.41-1.41L13 12.17V4h-2v8.17L8.41 9.59 7 11l5 5 5-5z"
			></path>
		</symbol>
		<symbol
			fill="currentColor"
			viewBox="0 0 24 24"
			id="material-explore-filled"
		>
			<path fill="none" d="M0 0h24v24H0z"></path>
			<path
				d="M12 10.9c-.61 0-1.1.49-1.1 1.1s.49 1.1 1.1 1.1 1.1-.49 1.1-1.1-.49-1.1-1.1-1.1M12 2C6.48 2 2 6.48 2 12s4.48 10 10 10 10-4.48 10-10S17.52 2 12 2m2.19 12.19L6 18l3.81-8.19L18 6z"
			></path>
		</symbol>
		<symbol viewBox="0 0 24 24" id="material-expand-more">
			<path d="M0 0h24v24H0z" fill="none"></path>
			<path d="M16.59 8.59L12 13.17 7.41 8.59 6 10l6 6 6-6z"></path>
		</symbol>
		<symbol viewBox="0 0 24 24" id="material-expand-less">
			<path d="M0 0h24v24H0z" fill="none"></path>
			<path d="M12 8l-6 6 1.41 1.41L12 10.83l4.59 4.58L18 14z"></path>
		</symbol>
		<symbol viewBox="0 0 24 24" id="material-error">
			<path
				d="M12 2C6.48 2 2 6.48 2 12s4.48 10 10 10 10-4.48 10-10S17.52 2 12 2zm1 15h-2v-2h2v2zm0-4h-2V7h2v6z"
			></path>
		</symbol>
		<symbol fill="currentColor" viewBox="0 0 24 24" id="material-edit-filled">
			<path fill="none" d="M0 0h24v24H0z"></path>
			<path
				d="M3 17.25V21h3.75L17.81 9.94l-3.75-3.75zM20.71 7.04a.996.996 0 0 0 0-1.41l-2.34-2.34a.996.996 0 0 0-1.41 0l-1.83 1.83 3.75 3.75z"
			></path>
		</symbol>
		<symbol fill="currentColor" viewBox="0 0 24 24" id="material-close">
			<path fill="none" d="M0 0h24v24H0z"></path>
			<path
				d="M19 6.41 17.59 5 12 10.59 6.41 5 5 6.41 10.59 12 5 17.59 6.41 19 12 13.41 17.59 19 19 17.59 13.41 12z"
			></path>
		</symbol>
		<symbol viewBox="0 0 24 24" id="material-circle-filled">
			<path fill="none" d="M0 0h24v24H0z"></path>
			<path
				d="M12 2C6.47 2 2 6.47 2 12s4.47 10 10 10 10-4.47 10-10S17.53 2 12 2z"
			></path>
		</symbol>
		<symbol viewBox="0 0 24 24" id="material-chevron-right">
			<path fill="none" d="M0 0h24v24H0V0z"></path>
			<path d="M10 6 8.59 7.41 13.17 12l-4.58 4.59L10 18l6-6-6-6z"></path>
		</symbol>
		<symbol viewBox="0 0 24 24" id="material-check">
			<path fill="none" d="M0 0h24v24H0V0z"></path>
			<path
				d="M9 16.17 4.83 12l-1.42 1.41L9 19 21 7l-1.41-1.41L9 16.17z"
			></path>
		</symbol>
		<symbol viewBox="0 0 24 24" id="material-check-circle-rounded">
			<path fill="none" d="M0 0h24v24H0V0z"></path>
			<path
				d="M12 2C6.48 2 2 6.48 2 12s4.48 10 10 10 10-4.48 10-10S17.52 2 12 2zM9.29 16.29 5.7 12.7a.996.996 0 1 1 1.41-1.41L10 14.17l6.88-6.88a.996.996 0 1 1 1.41 1.41l-7.59 7.59a.996.996 0 0 1-1.41 0z"
			></path>
		</symbol>
		<symbol
			fill="currentColor"
			viewBox="0 0 24 24"
			id="material-check-circle-outline-rounded"
		>
			<path fill="none" d="M0 0h24v24H0z"></path>
			<path
				d="M12 2C6.48 2 2 6.48 2 12s4.48 10 10 10 10-4.48 10-10S17.52 2 12 2m0 18c-4.41 0-8-3.59-8-8s3.59-8 8-8 8 3.59 8 8-3.59 8-8 8m3.88-11.71L10 14.17l-1.88-1.88a.996.996 0 1 0-1.41 1.41l2.59 2.59c.39.39 1.02.39 1.41 0L17.3 9.7a.996.996 0 0 0 0-1.41c-.39-.39-1.03-.39-1.42 0"
			></path>
		</symbol>
		<symbol viewBox="0 0 24 24" id="material-category">
			<path fill="none" d="M0 0h24v24H0V0z"></path>
			<path
				d="m12 2-5.5 9h11L12 2zm0 3.84L13.93 9h-3.87L12 5.84zM17.5 13c-2.49 0-4.5 2.01-4.5 4.5s2.01 4.5 4.5 4.5 4.5-2.01 4.5-4.5-2.01-4.5-4.5-4.5zm0 7a2.5 2.5 0 0 1 0-5 2.5 2.5 0 0 1 0 5zM3 21.5h8v-8H3v8zm2-6h4v4H5v-4z"
			></path>
		</symbol>
		<symbol fill="currentColor" viewBox="0 0 24 24" id="material-bolt-sharp">
			<path fill="none" d="M0 0h24v24H0z"></path>
			<path d="M11 21h-1l1-7H6.74S10.42 7.54 13 3h1l-1 7h4.28z"></path>
		</symbol>
		<symbol viewBox="0 0 24 24" id="material-auto-fix-high">
			<path fill="none" d="M0 0h24v24H0z"></path>
			<path
				d="M7.5 5.6 10 7 8.6 4.5 10 2 7.5 3.4 5 2l1.4 2.5L5 7zm12 9.8L17 14l1.4 2.5L17 19l2.5-1.4L22 19l-1.4-2.5L22 14zM22 2l-2.5 1.4L17 2l1.4 2.5L17 7l2.5-1.4L22 7l-1.4-2.5zm-7.63 5.29a.996.996 0 0 0-1.41 0L1.29 18.96a.996.996 0 0 0 0 1.41l2.34 2.34c.39.39 1.02.39 1.41 0L16.7 11.05a.996.996 0 0 0 0-1.41l-2.33-2.35zm-1.03 5.49-2.12-2.12 2.44-2.44 2.12 2.12-2.44 2.44z"
			></path>
		</symbol>
		<symbol viewBox="0 0 24 24" id="material-attachment">
			<path fill="none" d="M0 0h24v24H0V0z"></path>
			<path
				d="M18.5 16H7c-2.21 0-4-1.79-4-4s1.79-4 4-4h12.5a2.5 2.5 0 0 1 0 5H9c-.55 0-1-.45-1-1s.45-1 1-1h9.5V9.5H9a2.5 2.5 0 0 0 0 5h10.5c2.21 0 4-1.79 4-4s-1.79-4-4-4H7c-3.04 0-5.5 2.46-5.5 5.5s2.46 5.5 5.5 5.5h11.5V16z"
			></path>
		</symbol>
		<symbol viewBox="0 0 24 24" id="material-arrow-back">
			<path d="M0 0h24v24H0z" fill="none"></path>
			<path
				d="M20 11H7.83l5.59-5.59L12 4l-8 8 8 8 1.41-1.41L7.83 13H20v-2z"
			></path>
		</symbol>
		<symbol fill="none" viewBox="0 0 162 80" id="comapeo-send">
			<path
				fill="currentColor"
				d="m72.052 73.492 77.024-33.027L72.052 7.44l-.036 25.687 55.043 7.34-55.043 7.339.036 25.687Z"
			></path>
			<path
				stroke="currentColor"
				stroke-linecap="round"
				stroke-width="4.403"
				d="M54.591 57.991H41.1m13.491-31.578H27.416m27.175 15.789H6.363"
			></path>
		</symbol>
		<symbol viewBox="0 0 24 24" id="comapeo-cards">
			<g style="transform-origin: 0.000067px 12px 0">
				<path
					id="a"
					d="M6.055 19.222 8.466 5.156c.401-2.331 2.56-3.887 4.826-3.477l.357.066C13.332.568 12.2-.172 11.029.034L1.912 1.687C.655 1.917-.185 3.151.034 4.445l2.411 14.066c.225 1.294 1.424 2.156 2.682 1.931l.882-.16a4.373 4.373 0 0 1 .046-1.06Z"
					opacity=".6"
				></path>
				<path
					id="b"
					d="M19.274 23.046c-.081 0-.161-.007-.24-.022l-9.117-1.652c-.752-.141-1.255-.877-1.127-1.653l2.412-14.066c.14-.772.855-1.286 1.608-1.16l9.117 1.654c.753.14 1.257.877 1.128 1.653l-2.414 14.066a1.416 1.416 0 0 1-1.367 1.181v-.001Z"
					opacity=".3"
				></path>
				<path
					id="c"
					d="M12.57 5.421c.026 0 .052.003.078.008l9.118 1.653a.48.48 0 0 1 .376.551l-2.413 14.066a.479.479 0 0 1-.537.387l-9.117-1.654a.482.482 0 0 1-.376-.55L12.11 5.816a.481.481 0 0 1 .458-.395h.002Zm-.002-1.904c-1.123.003-2.083.831-2.282 1.967L7.878 19.55c-.219 1.294.62 2.528 1.877 2.76l9.118 1.653c1.259.228 2.459-.637 2.681-1.932l2.411-14.066c.217-1.293-.621-2.525-1.877-2.757l-9.117-1.653a2.261 2.261 0 0 0-.402-.038h-.001Z"
				></path>
			</g>
		</symbol>
	</defs>
</svg>
