<svg width="40" height="50" viewBox="0 0 40 50" fill="none" xmlns="http://www.w3.org/2000/svg">
<path d="M16.8125 32.5625H23.1875L21.625 23.5C22.4583 23.125 23.125 22.5729 23.625 21.8438C24.125 21.1146 24.375 20.3125 24.375 19.4375C24.375 18.2292 23.9479 17.1979 23.0938 16.3438C22.2396 15.4896 21.2083 15.0625 20 15.0625C18.7917 15.0625 17.7604 15.4896 16.9062 16.3438C16.0521 17.1979 15.625 18.2292 15.625 19.4375C15.625 20.3125 15.875 21.1146 16.375 21.8438C16.875 22.5729 17.5417 23.125 18.375 23.5L16.8125 32.5625ZM20 50C14.1667 48.5417 9.375 45.1562 5.625 39.8438C1.875 34.5312 0 28.7083 0 22.375V7.5L20 0L40 7.5V22.375C40 28.7083 38.125 34.5312 34.375 39.8438C30.625 45.1562 25.8333 48.5417 20 50ZM20 46.125C24.7917 44.5417 28.6979 41.5521 31.7188 37.1562C34.7396 32.7604 36.25 27.8333 36.25 22.375V10.125L20 4L3.75 10.125V22.375C3.75 27.8333 5.26042 32.7604 8.28125 37.1562C11.3021 41.5521 15.2083 44.5417 20 46.125Z" fill="#E86826"/>
</svg>
